<?xml version="1.0" encoding="UTF-8"?>
<svg width="302px" height="60px" viewBox="0 0 302 60" version="1.1" xmlns="http://www.w3.org/2000/svg" xmlns:xlink="http://www.w3.org/1999/xlink">
    <!-- Generator: Sketch 61.2 (89653) - https://sketch.com -->
    <title>WAP</title>
    <desc>Created with Sketch.</desc>
    <defs>
        <polygon id="path-1" points="0.0009 0 12.0009 0 12.0009 11.9999 0.0009 11.9999"></polygon>
        <polygon id="path-3" points="0 48 282 48 282 0 0 0"></polygon>
    </defs>
    <g id="WAP" stroke="none" stroke-width="1" fill="none" fill-rule="evenodd">
        <g id="编组">
            <g transform="translate(255.000000, 0.000000)">
                <mask id="mask-2" fill="white">
                    <use xlink:href="#path-1"></use>
                </mask>
                <g id="Clip-2"></g>
                <path d="M5.7329,8.2139 C5.6339,8.2539 5.5509,8.3119 5.4829,8.3869 C5.4159,8.4619 5.3599,8.5469 5.3159,8.6429 C5.2729,8.7379 5.2509,8.8409 5.2509,8.9519 C5.2509,9.0639 5.2729,9.1669 5.3159,9.2619 C5.3599,9.3569 5.4159,9.4429 5.4829,9.5179 C5.5509,9.5929 5.6339,9.6509 5.7329,9.6909 C5.8329,9.7299 5.9359,9.7499 6.0429,9.7499 C6.1499,9.7499 6.2529,9.7299 6.3519,9.6909 C6.4519,9.6509 6.5389,9.5929 6.6139,9.5179 C6.6899,9.4429 6.7489,9.3569 6.7929,9.2619 C6.8369,9.1669 6.8579,9.0639 6.8579,8.9519 C6.8579,8.8409 6.8369,8.7379 6.7929,8.6429 C6.7489,8.5469 6.6899,8.4619 6.6139,8.3869 C6.5389,8.3119 6.4519,8.2539 6.3519,8.2139 C6.2529,8.1739 6.1499,8.1549 6.0429,8.1549 C5.9359,8.1549 5.8329,8.1739 5.7329,8.2139 M3.6619,0.4699 C2.9359,0.7839 2.3009,1.2159 1.7569,1.7679 C1.2129,2.3189 0.7849,2.9589 0.4709,3.6849 C0.1579,4.4109 0.0009,5.1849 0.0009,6.0059 C0.0009,6.8269 0.1579,7.6049 0.4709,8.3389 C0.7849,9.0729 1.2129,9.7129 1.7569,10.2559 C2.3009,10.7989 2.9359,11.2259 3.6619,11.5359 C4.3879,11.8449 5.1659,11.9999 5.9949,11.9999 C6.8239,11.9999 7.6019,11.8449 8.3289,11.5359 C9.0549,11.2259 9.6909,10.7989 10.2389,10.2559 C10.7869,9.7129 11.2169,9.0729 11.5309,8.3389 C11.8439,7.6049 12.0009,6.8269 12.0009,6.0059 C12.0009,5.1849 11.8439,4.4109 11.5309,3.6849 C11.2169,2.9589 10.7869,2.3189 10.2389,1.7679 C9.6909,1.2159 9.0549,0.7839 8.3289,0.4699 C7.6019,0.1569 6.8239,-0.0001 5.9949,-0.0001 C5.1659,-0.0001 4.3879,0.1569 3.6619,0.4699 M5.2509,3.0469 L5.2509,6.5469 C5.3219,7.0639 5.5879,7.3289 6.0479,7.3449 C6.5649,7.2819 6.8349,7.0159 6.8579,6.5469 L6.8579,3.0469 C6.7869,2.5319 6.5169,2.2659 6.0479,2.2499 C5.5329,2.2659 5.2669,2.5319 5.2509,3.0469 M9.5479,2.4519 C10.4769,3.3889 10.9619,4.5709 11.0009,5.9999 C10.9619,7.4369 10.4769,8.6189 9.5479,9.5469 C8.6119,10.4839 7.4299,10.9679 6.0009,10.9999 C4.5719,10.9679 3.3859,10.4839 2.4409,9.5469 C1.5129,8.6189 1.0289,7.4369 0.9889,5.9999 C1.0289,4.5709 1.5129,3.3889 2.4409,2.4519 C3.3859,1.5239 4.5719,1.0439 6.0009,1.0119 C7.4299,1.0439 8.6119,1.5239 9.5479,2.4519" id="Fill-1" fill="#A4A4A4" mask="url(#mask-2)"></path>
            </g>
            <path d="M236.8955,8.7085 L231.3955,13.7085 C231.1875,13.8475 230.9585,13.9165 230.7085,13.9165 C230.4585,13.9165 230.2565,13.8475 230.1035,13.7085 L227.3955,11.2085 C227.2015,11.0005 227.0975,10.7645 227.0825,10.5005 C227.0695,10.2365 227.1385,10.0005 227.2915,9.7915 C227.4995,9.5975 227.7355,9.4965 227.9995,9.4895 C228.2645,9.4825 228.4995,9.5555 228.7085,9.7085 L230.7915,11.6045 L235.7085,7.2085 C235.9165,7.0145 236.1495,6.9305 236.4065,6.9585 C236.6635,6.9865 236.8955,7.0975 237.1035,7.2915 C237.2565,7.5145 237.3225,7.7645 237.3025,8.0415 C237.2815,8.3195 237.1455,8.5415 236.8955,8.7085 Z" id="Fill-3" fill="#FFFFFF"></path>
            <path d="M140.748,13.2222 C140.903,13.0752 140.981,12.9082 140.981,12.7222 C140.981,12.5352 140.903,12.3682 140.748,12.2212 C140.593,12.0742 140.375,12.0002 140.096,12.0002 C139.91,12.0002 139.743,12.0742 139.595,12.2212 C139.447,12.3682 139.374,12.5352 139.374,12.7222 C139.374,12.9082 139.447,13.0752 139.595,13.2222 C139.743,13.3692 139.91,13.4442 140.096,13.4442 C140.375,13.4442 140.593,13.3692 140.748,13.2222 L140.748,13.2222 Z M144.742,13.2222 C144.905,13.0752 144.986,12.9082 144.986,12.7222 C144.986,12.5352 144.905,12.3682 144.742,12.2212 C144.579,12.0742 144.357,12.0002 144.078,12.0002 C143.892,12.0002 143.728,12.0742 143.589,12.2212 C143.449,12.3682 143.379,12.5352 143.379,12.7222 C143.379,12.9082 143.449,13.0752 143.589,13.2222 C143.728,13.3692 143.892,13.4442 144.078,13.4442 C144.357,13.4442 144.579,13.3692 144.742,13.2222 L144.742,13.2222 Z M148.247,14.3522 C148.231,15.1752 147.991,15.9402 147.525,16.6462 C147.059,17.3522 146.454,17.9772 145.708,18.5202 L146.244,20.3372 L144.265,19.2652 C143.907,19.3592 143.546,19.4402 143.182,19.5102 C142.816,19.5802 142.456,19.6152 142.099,19.6152 C140.329,19.5842 138.866,19.0722 137.709,18.0782 C136.552,17.0842 135.958,15.8422 135.928,14.3522 C135.958,12.8622 136.552,11.6232 137.709,10.6382 C138.866,9.6522 140.329,9.1362 142.099,9.0892 C143.775,9.1362 145.207,9.6522 146.395,10.6382 C147.583,11.6232 148.2,12.8622 148.247,14.3522 L148.247,14.3522 Z M137.72,6.7372 C137.441,6.7372 137.192,6.8182 136.975,6.9812 C136.758,7.1442 136.649,7.3652 136.649,7.6452 C136.649,7.9242 136.758,8.1452 136.975,8.3082 C137.192,8.4722 137.441,8.5532 137.72,8.5532 C138,8.5532 138.221,8.4722 138.384,8.3082 C138.547,8.1452 138.629,7.9242 138.629,7.6452 C138.629,7.3662 138.547,7.1442 138.384,6.9812 C138.221,6.8182 138,6.7372 137.721,6.7372 L137.72,6.7372 Z M133.308,8.3082 C133.471,8.1452 133.552,7.9242 133.552,7.6452 C133.552,7.3662 133.471,7.1442 133.308,6.9812 C133.144,6.8182 132.923,6.7372 132.644,6.7372 C132.364,6.7372 132.116,6.8182 131.898,6.9812 C131.681,7.1442 131.573,7.3662 131.573,7.6452 C131.573,7.9242 131.681,8.1452 131.898,8.3082 C132.116,8.4722 132.372,8.5532 132.667,8.5532 C132.931,8.5532 133.144,8.4722 133.308,8.3082 L133.308,8.3082 Z M141.633,8.6922 L141.633,8.6922 C139.863,8.7392 138.404,9.3022 137.255,10.3812 C136.106,11.4602 135.508,12.8152 135.462,14.4452 C135.462,14.9572 135.54,15.4622 135.695,15.9582 C135.462,15.9742 135.237,15.9822 135.019,15.9822 C134.569,15.9822 134.142,15.9472 133.738,15.8772 C133.334,15.8072 132.915,15.7252 132.481,15.6332 L129.942,16.8902 L130.664,14.7242 C129.748,14.0882 129.038,13.3622 128.533,12.5472 C128.029,11.7322 127.769,10.8202 127.753,9.8102 C127.815,8.0562 128.529,6.6012 129.895,5.4442 C131.262,4.2872 132.97,3.6942 135.019,3.6632 C136.835,3.6942 138.419,4.1752 139.769,5.1062 C141.121,6.0382 141.974,7.2492 142.331,8.7402 L141.633,8.6932 L141.633,8.6922 Z" id="Fill-5" fill="#303030"></path>
            <polygon id="Fill-7" fill="#393939" points="16.25 13 8.875 20.542 7.75 19.345 13.688 13 7.75 6.655 8.875 5.458"></polygon>
            <polygon id="Fill-9" fill="#393939" points="31.75 13 39.125 20.542 40.25 19.345 34.312 13 40.25 6.655 39.125 5.458"></polygon>
            <path d="M54.0679,2.4849 C53.9129,2.3059 53.8649,2.1039 53.9249,1.8779 C53.9849,1.6519 54.1269,1.5089 54.3529,1.4489 C54.5789,1.3899 54.7819,1.4379 54.9599,1.5919 L59.9219,6.5539 C60.0409,6.6849 60.0999,6.8339 60.0999,6.9999 C60.0999,7.1669 60.0409,7.3159 59.9219,7.4459 L54.9599,12.4079 C54.7819,12.5629 54.5789,12.6099 54.3529,12.5509 C54.1269,12.4909 53.9849,12.3479 53.9249,12.1219 C53.8649,11.8959 53.9129,11.6939 54.0679,11.5159 L58.6009,6.9999 L54.0679,2.4849 Z" id="Fill-11" fill="#303030"></path>
            <path d="M68.6353,3.3584 C68.5103,3.2144 68.4723,3.0514 68.5203,2.8694 C68.5683,2.6874 68.6833,2.5714 68.8653,2.5244 C69.0483,2.4754 69.2113,2.5144 69.3553,2.6394 L73.3563,6.6404 C73.4523,6.7454 73.5003,6.8654 73.5003,7.0004 C73.5003,7.1344 73.4523,7.2544 73.3563,7.3594 L69.3553,11.3614 C69.2113,11.4854 69.0483,11.5244 68.8653,11.4764 C68.6833,11.4284 68.5683,11.3134 68.5203,11.1304 C68.4723,10.9484 68.5103,10.7854 68.6353,10.6414 L72.2913,7.0004 L68.6353,3.3584 Z" id="Fill-13" fill="#343434"></path>
            <path d="M79.709,7 L83.365,10.642 C83.49,10.786 83.528,10.949 83.48,11.131 C83.432,11.313 83.317,11.428 83.135,11.477 C82.952,11.524 82.789,11.486 82.645,11.361 L78.644,7.36 C78.548,7.254 78.5,7.134 78.5,7 C78.5,6.866 78.548,6.746 78.644,6.64 L82.645,2.639 C82.789,2.514 82.952,2.476 83.135,2.524 C83.317,2.572 83.432,2.687 83.48,2.869 C83.528,3.051 83.49,3.215 83.365,3.358 L79.709,7 Z" id="Fill-15" fill="#343434"></path>
            <path d="M88.6353,3.3584 C88.5103,3.2144 88.4723,3.0514 88.5203,2.8694 C88.5683,2.6874 88.6833,2.5714 88.8653,2.5244 C89.0483,2.4754 89.2113,2.5144 89.3553,2.6394 L93.3563,6.6404 C93.4523,6.7454 93.5003,6.8654 93.5003,7.0004 C93.5003,7.1344 93.4523,7.2544 93.3563,7.3594 L89.3553,11.3614 C89.2113,11.4854 89.0483,11.5244 88.8653,11.4764 C88.6833,11.4284 88.5683,11.3134 88.5203,11.1304 C88.4723,10.9484 88.5103,10.7854 88.6353,10.6414 L92.2913,7.0004 L88.6353,3.3584 Z" id="Fill-17" fill="#969696"></path>
            <path d="M99.709,7 L103.365,10.642 C103.49,10.786 103.528,10.949 103.48,11.131 C103.432,11.313 103.317,11.428 103.135,11.477 C102.952,11.524 102.789,11.486 102.645,11.361 L98.644,7.36 C98.548,7.254 98.5,7.134 98.5,7 C98.5,6.866 98.548,6.746 98.644,6.64 L102.645,2.639 C102.789,2.514 102.952,2.476 103.135,2.524 C103.317,2.572 103.432,2.687 103.48,2.869 C103.528,3.051 103.49,3.215 103.365,3.358 L99.709,7 Z" id="Fill-19" fill="#969696"></path>
            <path d="M117.2578,16.541 C117.5418,16.541 117.7518,16.426 117.8868,16.196 C118.0218,15.967 118.0218,15.733 117.8868,15.497 C117.7518,15.26 117.5418,15.142 117.2578,15.142 C117.0688,15.155 116.9098,15.226 116.7808,15.354 C116.6528,15.483 116.5888,15.645 116.5888,15.841 C116.5888,16.038 116.6528,16.2 116.7808,16.328 C116.9098,16.457 117.0688,16.528 117.2578,16.541 L117.2578,16.541 Z M122.0658,8.69 L122.0658,8.833 L122.0658,12.666 C122.4708,12.531 122.8058,12.288 123.0698,11.937 C123.3338,11.584 123.4658,11.166 123.4658,10.679 C123.4658,10.192 123.3338,9.772 123.0698,9.421 C122.8058,9.069 122.4708,8.826 122.0658,8.69 L122.0658,8.69 Z M109.4068,8.954 C109.1228,9.157 108.9038,9.407 108.7478,9.705 C108.5918,10.002 108.5178,10.33 108.5248,10.688 C108.5308,11.047 108.6118,11.378 108.7678,11.683 C108.9238,11.987 109.1358,12.234 109.4068,12.423 L109.4068,8.954 Z M118.9418,16.318 C118.8198,16.737 118.5868,17.062 118.2418,17.292 C117.8968,17.522 117.5048,17.613 117.0648,17.566 C116.6258,17.519 116.2638,17.339 115.9798,17.028 C115.6958,16.717 115.5468,16.342 115.5328,15.902 C115.5198,15.463 115.6418,15.081 115.8988,14.756 C116.1558,14.432 116.5008,14.228 116.9328,14.147 C117.3658,14.066 117.7648,14.127 118.1298,14.33 C118.4948,14.533 118.7528,14.844 118.9008,15.263 C119.7128,15.033 120.4228,14.323 121.0308,13.133 L121.0308,8.833 C120.9908,7.304 120.4728,6.037 119.4788,5.029 C118.4848,4.021 117.2368,3.497 115.7368,3.457 C114.2348,3.497 112.9868,4.021 111.9938,5.029 C110.9998,6.037 110.4818,7.304 110.4418,8.833 L110.4418,13.782 C110.3338,13.782 110.2178,13.775 110.0968,13.762 C109.9068,13.816 109.7318,13.775 109.5698,13.64 C108.9608,13.437 108.4638,13.069 108.0778,12.535 C107.6928,12 107.4998,11.385 107.4998,10.688 C107.4998,9.992 107.6858,9.38 108.0578,8.853 C108.4298,8.325 108.9128,7.953 109.5078,7.737 C109.7928,6.195 110.5028,4.931 111.6388,3.943 C112.7748,2.956 114.1408,2.449 115.7368,2.422 C117.3048,2.449 118.6538,2.943 119.7838,3.903 C120.9128,4.863 121.6328,6.101 121.9438,7.615 C122.6878,7.737 123.2968,8.079 123.7698,8.64 C124.2428,9.201 124.4868,9.881 124.4998,10.679 C124.4868,11.49 124.2368,12.18 123.7498,12.748 C123.2628,13.316 122.6338,13.654 121.8628,13.762 C121.0918,15.223 120.1178,16.075 118.9418,16.318 L118.9418,16.318 Z" id="Fill-21" fill="#FFFFFF"></path>
            <path d="M208.5137,4.5303 C208.4657,4.4983 208.1497,4.5423 207.5667,4.6633 C206.9837,4.7853 206.4097,5.1693 205.8427,5.8173 C205.3567,6.5133 205.2027,7.2903 205.3817,8.1483 C205.5597,9.0063 205.7857,9.7113 206.0607,10.2613 C206.4177,10.9413 207.0037,11.9483 207.8217,13.2843 C208.6387,14.6193 209.1207,15.3843 209.2657,15.5793 C209.3147,15.6273 209.3637,15.6483 209.4117,15.6393 C209.4607,15.6313 209.4847,15.6033 209.4847,15.5543 C209.5007,15.2953 209.5417,14.2153 209.6067,12.3133 C209.6717,10.4103 209.6547,8.9823 209.5577,8.0273 C209.4117,7.2503 209.2217,6.5053 208.9877,5.7933 C208.7527,5.0803 208.5947,4.6593 208.5137,4.5303 L208.5137,4.5303 Z M202.0177,8.1603 C201.5887,8.6863 201.3257,9.2893 201.2287,9.9693 C201.1477,10.6173 201.2647,11.1873 201.5807,11.6813 C201.8967,12.1753 202.4427,12.6813 203.2207,13.1993 C204.1267,13.8143 205.2107,14.4703 206.4737,15.1663 C207.7367,15.8623 208.4407,16.2023 208.5867,16.1863 C208.5867,16.0243 208.3037,15.4413 207.7367,14.4373 C207.1697,13.4343 206.5587,12.4103 205.9037,11.3653 C205.2477,10.3223 204.6127,9.3953 203.9967,8.5853 C203.3817,7.7763 203.0017,7.3473 202.8557,7.2983 C202.7257,7.3473 202.4477,7.6343 202.0177,8.1603 L202.0177,8.1603 Z M203.3657,19.3673 C203.9807,19.5613 204.6287,19.5053 205.3087,19.1973 C205.9887,18.8893 206.4657,18.6223 206.7407,18.3963 L208.0277,17.4253 L201.6417,17.5943 C201.6417,17.6433 201.7867,17.8783 202.0787,18.2993 C202.3697,18.7193 202.7997,19.0753 203.3657,19.3673 L203.3657,19.3673 Z M203.5357,14.1953 C202.8887,13.8543 202.1557,13.4663 201.3377,13.0293 C200.5207,12.5923 200.0557,12.3573 199.9417,12.3243 C199.8607,12.3733 199.7997,12.7053 199.7597,13.3213 C199.7197,13.9353 199.8767,14.5673 200.2327,15.2143 C200.6217,15.8293 201.0987,16.2623 201.6657,16.5133 C202.2327,16.7643 202.6937,16.9063 203.0497,16.9383 C203.5837,16.9873 204.5277,17.0073 205.8787,16.9993 C207.2307,16.9913 207.9797,16.9633 208.1247,16.9143 C207.9957,16.8013 207.3717,16.4083 206.2557,15.7373 C205.1387,15.0653 204.2317,14.5513 203.5357,14.1953 L203.5357,14.1953 Z M214.1717,5.8173 C213.6047,5.1693 213.0257,4.7853 212.4347,4.6633 C211.8447,4.5423 211.5247,4.4983 211.4757,4.5303 C211.4107,4.6593 211.2577,5.0803 211.0147,5.7933 C210.7717,6.5053 210.5857,7.2503 210.4557,8.0273 C210.3587,8.9823 210.3387,10.4103 210.3957,12.3133 C210.4517,14.2153 210.4887,15.2953 210.5047,15.5543 C210.5207,15.6033 210.5497,15.6313 210.5897,15.6393 C210.6307,15.6483 210.6747,15.6273 210.7237,15.5793 C210.8687,15.3843 211.3547,14.6193 212.1807,13.2843 C213.0057,11.9483 213.5887,10.9413 213.9287,10.2613 C214.2207,9.7113 214.4507,9.0063 214.6207,8.1483 C214.7907,7.2903 214.6407,6.5133 214.1717,5.8173 Z M220.0727,12.3253 C219.9587,12.3573 219.4927,12.5923 218.6757,13.0293 C217.8587,13.4663 217.1257,13.8553 216.4787,14.1953 C215.7827,14.5513 214.8717,15.0653 213.7467,15.7373 C212.6217,16.4083 211.9937,16.8013 211.8647,16.9143 C212.0267,16.9633 212.7797,16.9913 214.1227,16.9993 C215.4667,17.0083 216.4057,16.9873 216.9397,16.9393 C217.2957,16.9063 217.7577,16.7643 218.3237,16.5143 C218.8907,16.2633 219.3757,15.8303 219.7807,15.2153 C220.1207,14.5673 220.2747,13.9363 220.2427,13.3213 C220.2097,12.7053 220.1537,12.3733 220.0727,12.3253 L220.0727,12.3253 Z M211.9617,17.4243 L213.2487,18.3953 C213.5397,18.6223 214.0257,18.8893 214.7057,19.1973 C215.3857,19.5043 216.0257,19.5613 216.6237,19.3663 C217.1907,19.0753 217.6237,18.7193 217.9237,18.2983 C218.2227,17.8783 218.3727,17.6433 218.3727,17.5943 L211.9617,17.4243 Z M217.9837,8.1603 C217.5627,7.6343 217.2797,7.3473 217.1347,7.2983 C217.0047,7.3473 216.6287,7.7763 216.0047,8.5853 C215.3817,9.3953 214.7427,10.3223 214.0867,11.3653 C213.4307,12.4103 212.8197,13.4343 212.2537,14.4373 C211.6867,15.4413 211.4037,16.0243 211.4037,16.1863 C211.5657,16.2023 212.2737,15.8623 213.5287,15.1663 C214.7827,14.4703 215.8717,13.8143 216.7937,13.1993 C217.5557,12.6813 218.0937,12.1753 218.4097,11.6813 C218.7247,11.1873 218.8497,10.6173 218.7857,9.9693 C218.6717,9.2893 218.4047,8.6863 217.9837,8.1603 L217.9837,8.1603 Z" id="Fill-23" fill="#303030"></path>
            <path d="M158.8359,13.7109 L161.2269,13.5699 L161.2269,12.7029 L159.6329,12.7969 L159.6329,9.0699 L158.3439,9.1409 L158.3439,12.8669 L154.5469,13.1019 L154.5469,13.9449 L157.1719,13.7809 L156.0229,15.3279 L154.5939,15.4219 L154.5939,16.2659 L156.9839,16.1249 L158.8359,13.7109 Z M162.0239,12.0239 L162.0239,12.8669 L162.9379,12.8199 L165.3279,11.6249 L167.7659,12.5389 L168.7029,12.4919 L168.7029,11.6249 L168.0939,11.6719 L166.4769,11.0859 L168.6089,10.0309 L168.6089,8.5549 L164.3199,8.7889 L163.2889,8.2969 L161.9529,10.4059 L163.0549,10.8049 L163.7579,9.6799 L167.3199,9.4689 L167.3199,9.6799 L165.3279,10.6639 L163.8049,10.0779 L163.2889,10.8749 L164.1799,11.2269 L162.6329,11.9769 L162.0239,12.0239 Z M167.9999,13.8749 L166.7109,13.9449 L167.6489,15.5159 L168.9609,15.4449 L167.9999,13.8749 Z M162.0239,15.8439 L163.3359,15.7739 L164.2029,14.1089 L162.8909,14.1799 L162.0239,15.8439 Z M158.9529,13.9219 L159.9839,15.9379 L161.4139,15.8669 L160.3829,13.8519 L158.9529,13.9219 Z M157.5939,12.4689 L156.5629,11.1329 L155.1329,11.2269 L156.1639,12.5389 L157.5939,12.4689 Z M157.5939,10.8049 L156.5629,9.4919 L155.1329,9.5629 L156.1639,10.8979 L157.5939,10.8049 Z M168.7029,13.5699 L168.7029,12.7269 L166.0079,12.8909 L166.0079,12.4449 L164.7189,12.5159 L164.7189,12.9609 L162.0239,13.1019 L162.0239,13.9449 L164.7189,13.8049 L164.7189,15.6799 L166.0079,15.6089 L166.0079,13.7339 L168.7029,13.5699 Z M156.2109,20.9999 C155.2889,20.9839 154.5269,20.6719 153.9259,20.0629 C153.3239,19.4529 153.0159,18.6949 152.9999,17.7889 L152.9999,6.2109 C153.0159,5.2889 153.3239,4.5269 153.9259,3.9259 C154.5269,3.3239 155.2889,3.0159 156.2109,2.9999 L167.7889,2.9999 C168.7109,3.0159 169.4729,3.3239 170.0739,3.9259 C170.6759,4.5269 170.9839,5.2889 170.9999,6.2109 L170.9999,17.7889 C170.9839,18.6949 170.6759,19.4529 170.0739,20.0629 C169.4729,20.6719 168.7109,20.9839 167.7889,20.9999 L156.2109,20.9999 Z M170.5079,6.3519 L170.5079,6.2109 C170.4769,5.4449 170.2069,4.8079 169.6989,4.3009 C169.1909,3.7929 168.5549,3.5229 167.7889,3.4919 L156.2109,3.4919 C155.8359,3.4919 155.4839,3.5619 155.1559,3.7029 C154.8279,3.8429 154.5389,4.0389 154.2889,4.2889 C154.0389,4.5389 153.8439,4.8279 153.7029,5.1559 C153.5629,5.4839 153.4919,5.8359 153.4919,6.2109 L153.4919,7.2889 L170.5079,6.3519 Z M170.5079,17.4839 L153.5859,18.4689 C153.7579,19.0779 154.0779,19.5659 154.5469,19.9339 C155.0159,20.3009 155.5699,20.4919 156.2109,20.5079 L167.7889,20.5079 C168.5549,20.4769 169.1909,20.2069 169.6989,19.6989 C170.2069,19.1909 170.4769,18.5549 170.5079,17.7889 L170.5079,17.4839 Z" id="Fill-25" fill="#303030"></path>
            <path d="M194.2192,4.9404 C195.0822,5.6274 195.6702,6.4394 195.9822,7.3754 C196.2942,8.3104 196.3292,9.3374 196.0902,10.4574 C196.0422,10.6814 195.9502,10.8724 195.8142,11.0324 C195.6782,11.1924 195.4982,11.2724 195.2742,11.2724 C195.0502,11.2724 194.8582,11.1924 194.6982,11.0324 C194.5382,10.8734 194.4582,10.6814 194.4582,10.4574 C194.5382,10.3294 194.5782,9.7614 194.5782,8.7544 C194.5782,7.7474 194.1312,6.8754 193.2352,6.1404 C192.2762,5.5644 191.5052,5.2924 190.9212,5.3244 C190.3372,5.3564 190.0212,5.3964 189.9732,5.4444 C189.7492,5.4444 189.5572,5.3644 189.3982,5.2044 C189.2382,5.0444 189.1572,4.8574 189.1572,4.6404 C189.1572,4.4244 189.2382,4.2454 189.3982,4.1014 C189.5572,3.9574 189.7252,3.8694 189.9022,3.8374 C190.6692,3.6934 191.4282,3.7174 192.1802,3.9094 C192.9322,4.1014 193.6122,4.4444 194.2192,4.9404 L194.2192,4.9404 Z M192.9722,7.4114 C193.1962,7.6504 193.3642,7.9864 193.4752,8.4184 C193.5872,8.8504 193.5552,9.3774 193.3802,10.0014 C193.3162,10.3054 193.0922,10.4574 192.7082,10.4574 C192.5162,10.4574 192.3602,10.3774 192.2402,10.2174 C192.1202,10.0574 192.0722,9.8814 192.0962,9.6894 C192.1202,9.4984 192.1282,9.2864 192.1202,9.0544 C192.1122,8.8224 192.0402,8.6144 191.9052,8.4304 C191.7682,8.2464 191.6092,8.0984 191.4252,7.9864 C191.2412,7.8754 190.9972,7.8264 190.6932,7.8424 C190.1172,7.8584 189.8342,7.6674 189.8422,7.2674 C189.8492,6.8674 190.1012,6.6114 190.5972,6.4994 C190.8692,6.4354 191.2532,6.4714 191.7482,6.6074 C192.2442,6.7434 192.6522,7.0114 192.9722,7.4114 L192.9722,7.4114 Z M186.9512,14.4874 C187.0792,15.2544 186.8912,15.9544 186.3882,16.5864 C185.8842,17.2174 185.1772,17.6374 184.2652,17.8454 C183.3542,18.0044 182.5422,17.8894 181.8312,17.4974 C181.1192,17.1054 180.6752,16.5254 180.4992,15.7584 C180.3712,14.9904 180.5592,14.2874 181.0632,13.6474 C181.5672,13.0074 182.2742,12.5924 183.1862,12.4004 C184.0972,12.2244 184.9082,12.3324 185.6202,12.7244 C186.3322,13.1154 186.7752,13.7034 186.9512,14.4864 L186.9512,14.4874 Z M182.9222,16.5254 C183.2412,16.4454 183.4892,16.2934 183.6652,16.0694 C183.8412,15.8454 183.8972,15.5984 183.8332,15.3264 C183.7692,15.0544 183.6092,14.8544 183.3532,14.7264 C183.0972,14.5984 182.8052,14.5704 182.4782,14.6424 C182.1502,14.7144 181.9022,14.8664 181.7342,15.0984 C181.5662,15.3304 181.5142,15.5824 181.5782,15.8544 C181.6422,16.1264 181.8022,16.3254 182.0582,16.4534 C182.3142,16.5814 182.6022,16.6064 182.9222,16.5254 Z M184.5052,14.9184 C184.6332,14.9024 184.7332,14.8464 184.8042,14.7504 C184.8772,14.6544 184.9012,14.5504 184.8772,14.4394 C184.8532,14.3274 184.7892,14.2474 184.6852,14.1994 C184.5812,14.1504 184.4612,14.1394 184.3252,14.1634 C184.1892,14.1874 184.0852,14.2474 184.0132,14.3434 C183.9412,14.4394 183.9172,14.5394 183.9412,14.6434 C183.9652,14.7474 184.0292,14.8274 184.1332,14.8824 C184.2372,14.9384 184.3612,14.9504 184.5052,14.9184 L184.5052,14.9184 Z M193.4272,13.2394 C193.6992,13.8794 193.6672,14.6194 193.3322,15.4584 C192.9962,16.2974 192.3722,17.1494 191.4612,18.0124 C190.4062,18.9724 188.6422,19.6634 186.1722,20.0874 C183.7012,20.5114 181.2112,20.1314 178.7002,18.9484 C176.4942,17.5894 175.5262,16.1134 175.7982,14.5234 C176.0702,12.9324 176.4782,11.8564 177.0222,11.2964 C177.4212,10.7534 178.0732,9.9974 178.9762,9.0304 C179.8802,8.0634 180.8512,7.2914 181.8912,6.7154 C182.8342,6.2834 183.5822,6.0604 184.1342,6.0444 C184.6852,6.0274 185.0652,6.1004 185.2732,6.2594 C185.4652,6.3714 185.6292,6.5074 185.7642,6.6684 C185.9002,6.8274 185.9922,7.1074 186.0402,7.5064 C186.0402,7.9224 185.9722,8.2584 185.8362,8.5144 C185.7002,8.7704 185.6802,8.9624 185.7762,9.0904 C185.9042,9.1224 186.2922,9.0104 186.9402,8.7544 C187.5872,8.4984 188.2792,8.3544 189.0142,8.3224 C189.9422,8.3864 190.5252,8.5864 190.7652,8.9224 C191.0052,9.2574 191.1252,9.5054 191.1252,9.6664 C191.1572,9.8254 191.1492,10.0534 191.1012,10.3494 C191.0532,10.6454 190.9572,10.8734 190.8132,11.0324 C190.6372,11.2404 190.5972,11.3974 190.6932,11.5014 C190.7892,11.6054 190.9452,11.6654 191.1612,11.6804 C191.3772,11.6964 191.7332,11.8004 192.2282,11.9924 C192.7242,12.1844 193.1242,12.6004 193.4272,13.2394 L193.4272,13.2394 Z M184.7682,18.5404 C186.4792,18.2844 187.8502,17.7094 188.8822,16.8134 C189.9132,15.9184 190.3732,14.9104 190.2612,13.7914 C190.0692,12.6884 189.3582,11.8404 188.1262,11.2494 C186.8952,10.6574 185.4162,10.4654 183.6892,10.6734 C181.9942,10.9294 180.6272,11.5044 179.5882,12.4004 C178.5482,13.2954 178.0842,14.3034 178.1972,15.4224 C178.3882,16.5424 179.1042,17.3934 180.3432,17.9774 C181.5822,18.5604 183.0572,18.7484 184.7682,18.5404 L184.7682,18.5404 Z" id="Fill-27" fill="#303030"></path>
            <path d="M140.748,37.2222 C140.903,37.0752 140.981,36.9082 140.981,36.7222 C140.981,36.5352 140.903,36.3682 140.748,36.2212 C140.593,36.0742 140.375,36.0002 140.096,36.0002 C139.91,36.0002 139.743,36.0742 139.595,36.2212 C139.447,36.3682 139.374,36.5352 139.374,36.7222 C139.374,36.9082 139.447,37.0752 139.595,37.2222 C139.743,37.3692 139.91,37.4442 140.096,37.4442 C140.375,37.4442 140.593,37.3692 140.748,37.2222 L140.748,37.2222 Z M144.742,37.2222 C144.905,37.0752 144.986,36.9082 144.986,36.7222 C144.986,36.5352 144.905,36.3682 144.742,36.2212 C144.579,36.0742 144.357,36.0002 144.078,36.0002 C143.892,36.0002 143.728,36.0742 143.589,36.2212 C143.449,36.3682 143.379,36.5352 143.379,36.7222 C143.379,36.9082 143.449,37.0752 143.589,37.2222 C143.728,37.3692 143.892,37.4442 144.078,37.4442 C144.357,37.4442 144.579,37.3692 144.742,37.2222 L144.742,37.2222 Z M148.247,38.3522 C148.231,39.1752 147.991,39.9402 147.525,40.6462 C147.059,41.3522 146.454,41.9772 145.708,42.5202 L146.244,44.3372 L144.265,43.2652 C143.907,43.3592 143.546,43.4402 143.182,43.5102 C142.816,43.5802 142.456,43.6152 142.099,43.6152 C140.329,43.5842 138.866,43.0722 137.709,42.0782 C136.552,41.0842 135.958,39.8422 135.928,38.3522 C135.958,36.8622 136.552,35.6232 137.709,34.6382 C138.866,33.6522 140.329,33.1362 142.099,33.0892 C143.775,33.1362 145.207,33.6522 146.395,34.6382 C147.583,35.6232 148.2,36.8622 148.247,38.3522 L148.247,38.3522 Z M137.72,30.7372 C137.441,30.7372 137.192,30.8182 136.975,30.9812 C136.758,31.1442 136.649,31.3652 136.649,31.6452 C136.649,31.9242 136.758,32.1452 136.975,32.3082 C137.192,32.4722 137.441,32.5532 137.72,32.5532 C138,32.5532 138.221,32.4722 138.384,32.3082 C138.547,32.1452 138.629,31.9242 138.629,31.6452 C138.629,31.3662 138.547,31.1442 138.384,30.9812 C138.221,30.8182 138,30.7372 137.721,30.7372 L137.72,30.7372 Z M133.308,32.3082 C133.471,32.1452 133.552,31.9242 133.552,31.6452 C133.552,31.3662 133.471,31.1442 133.308,30.9812 C133.144,30.8182 132.923,30.7372 132.644,30.7372 C132.364,30.7372 132.116,30.8182 131.898,30.9812 C131.681,31.1442 131.573,31.3662 131.573,31.6452 C131.573,31.9242 131.681,32.1452 131.898,32.3082 C132.116,32.4722 132.372,32.5532 132.667,32.5532 C132.931,32.5532 133.144,32.4722 133.308,32.3082 L133.308,32.3082 Z M141.633,32.6922 L141.633,32.6922 C139.863,32.7392 138.404,33.3022 137.255,34.3812 C136.106,35.4602 135.508,36.8152 135.462,38.4452 C135.462,38.9572 135.54,39.4622 135.695,39.9582 C135.462,39.9742 135.237,39.9822 135.019,39.9822 C134.569,39.9822 134.142,39.9472 133.738,39.8772 C133.334,39.8072 132.915,39.7252 132.481,39.6332 L129.942,40.8902 L130.664,38.7242 C129.748,38.0882 129.038,37.3622 128.533,36.5472 C128.029,35.7322 127.769,34.8202 127.753,33.8102 C127.815,32.0562 128.529,30.6012 129.895,29.4442 C131.262,28.2872 132.97,27.6942 135.019,27.6632 C136.835,27.6942 138.419,28.1752 139.769,29.1062 C141.121,30.0382 141.974,31.2492 142.331,32.7402 L141.633,32.6932 L141.633,32.6922 Z" id="Fill-29" fill="#787878"></path>
            <path d="M208.5137,28.5303 C208.4657,28.4983 208.1497,28.5423 207.5667,28.6633 C206.9837,28.7853 206.4097,29.1693 205.8427,29.8173 C205.3567,30.5133 205.2027,31.2903 205.3817,32.1483 C205.5597,33.0063 205.7857,33.7113 206.0607,34.2613 C206.4177,34.9413 207.0037,35.9483 207.8217,37.2843 C208.6387,38.6193 209.1207,39.3843 209.2657,39.5793 C209.3147,39.6273 209.3637,39.6483 209.4117,39.6393 C209.4607,39.6313 209.4847,39.6033 209.4847,39.5543 C209.5007,39.2953 209.5417,38.2153 209.6067,36.3133 C209.6717,34.4103 209.6547,32.9823 209.5577,32.0273 C209.4117,31.2503 209.2217,30.5053 208.9877,29.7933 C208.7527,29.0803 208.5947,28.6593 208.5137,28.5303 L208.5137,28.5303 Z M202.0177,32.1603 C201.5887,32.6863 201.3257,33.2893 201.2287,33.9693 C201.1477,34.6173 201.2647,35.1873 201.5807,35.6813 C201.8967,36.1753 202.4427,36.6813 203.2207,37.1993 C204.1267,37.8143 205.2107,38.4693 206.4737,39.1663 C207.7367,39.8623 208.4407,40.2023 208.5867,40.1863 C208.5867,40.0243 208.3037,39.4413 207.7367,38.4373 C207.1697,37.4343 206.5587,36.4103 205.9037,35.3653 C205.2477,34.3223 204.6127,33.3953 203.9967,32.5853 C203.3817,31.7763 203.0017,31.3473 202.8557,31.2983 C202.7257,31.3473 202.4477,31.6343 202.0177,32.1603 L202.0177,32.1603 Z M203.3657,43.3673 C203.9807,43.5613 204.6287,43.5053 205.3087,43.1973 C205.9887,42.8893 206.4657,42.6223 206.7407,42.3963 L208.0277,41.4253 L201.6417,41.5943 C201.6417,41.6433 201.7867,41.8783 202.0787,42.2993 C202.3697,42.7193 202.7997,43.0753 203.3657,43.3673 L203.3657,43.3673 Z M203.5357,38.1953 C202.8887,37.8543 202.1557,37.4663 201.3377,37.0293 C200.5207,36.5923 200.0557,36.3573 199.9417,36.3243 C199.8607,36.3733 199.7997,36.7053 199.7597,37.3213 C199.7197,37.9353 199.8767,38.5673 200.2327,39.2143 C200.6217,39.8293 201.0987,40.2623 201.6657,40.5133 C202.2327,40.7643 202.6937,40.9063 203.0497,40.9383 C203.5837,40.9873 204.5277,41.0073 205.8787,40.9993 C207.2307,40.9913 207.9797,40.9633 208.1247,40.9143 C207.9957,40.8013 207.3717,40.4083 206.2557,39.7373 C205.1387,39.0653 204.2317,38.5513 203.5357,38.1953 L203.5357,38.1953 Z M214.1717,29.8173 C213.6047,29.1693 213.0257,28.7853 212.4347,28.6633 C211.8447,28.5423 211.5247,28.4983 211.4757,28.5303 C211.4107,28.6593 211.2577,29.0803 211.0147,29.7933 C210.7717,30.5053 210.5857,31.2503 210.4557,32.0273 C210.3587,32.9823 210.3387,34.4103 210.3957,36.3133 C210.4517,38.2153 210.4887,39.2953 210.5047,39.5543 C210.5207,39.6033 210.5497,39.6313 210.5897,39.6393 C210.6307,39.6483 210.6747,39.6273 210.7237,39.5793 C210.8687,39.3843 211.3547,38.6193 212.1807,37.2843 C213.0057,35.9483 213.5887,34.9413 213.9287,34.2613 C214.2207,33.7113 214.4507,33.0063 214.6207,32.1483 C214.7907,31.2903 214.6407,30.5133 214.1717,29.8173 Z M220.0727,36.3253 C219.9587,36.3573 219.4927,36.5923 218.6757,37.0293 C217.8587,37.4663 217.1257,37.8553 216.4787,38.1953 C215.7827,38.5513 214.8717,39.0653 213.7467,39.7373 C212.6217,40.4083 211.9937,40.8013 211.8647,40.9143 C212.0267,40.9633 212.7797,40.9913 214.1227,40.9993 C215.4667,41.0083 216.4057,40.9873 216.9397,40.9393 C217.2957,40.9063 217.7577,40.7643 218.3237,40.5143 C218.8907,40.2633 219.3757,39.8303 219.7807,39.2153 C220.1207,38.5673 220.2747,37.9363 220.2427,37.3213 C220.2097,36.7053 220.1537,36.3733 220.0727,36.3253 L220.0727,36.3253 Z M211.9617,41.4243 L213.2487,42.3953 C213.5397,42.6223 214.0257,42.8893 214.7057,43.1973 C215.3857,43.5043 216.0257,43.5613 216.6237,43.3663 C217.1907,43.0753 217.6237,42.7193 217.9237,42.2983 C218.2227,41.8783 218.3727,41.6433 218.3727,41.5943 L211.9617,41.4243 Z M217.9837,32.1603 C217.5627,31.6343 217.2797,31.3473 217.1347,31.2983 C217.0047,31.3473 216.6287,31.7763 216.0047,32.5853 C215.3817,33.3953 214.7427,34.3223 214.0867,35.3653 C213.4307,36.4103 212.8197,37.4343 212.2537,38.4373 C211.6867,39.4413 211.4037,40.0243 211.4037,40.1863 C211.5657,40.2023 212.2737,39.8623 213.5287,39.1663 C214.7827,38.4703 215.8717,37.8143 216.7937,37.1993 C217.5557,36.6813 218.0937,36.1753 218.4097,35.6813 C218.7247,35.1873 218.8497,34.6173 218.7857,33.9693 C218.6717,33.2893 218.4047,32.6863 217.9837,32.1603 L217.9837,32.1603 Z" id="Fill-31" fill="#787878"></path>
            <path d="M158.8359,37.7109 L161.2269,37.5699 L161.2269,36.7029 L159.6329,36.7969 L159.6329,33.0699 L158.3439,33.1409 L158.3439,36.8669 L154.5469,37.1019 L154.5469,37.9449 L157.1719,37.7809 L156.0229,39.3279 L154.5939,39.4219 L154.5939,40.2659 L156.9839,40.1249 L158.8359,37.7109 Z M162.0239,36.0239 L162.0239,36.8669 L162.9379,36.8199 L165.3279,35.6249 L167.7659,36.5389 L168.7029,36.4919 L168.7029,35.6249 L168.0939,35.6719 L166.4769,35.0859 L168.6089,34.0309 L168.6089,32.5549 L164.3199,32.7889 L163.2889,32.2969 L161.9529,34.4059 L163.0549,34.8049 L163.7579,33.6799 L167.3199,33.4689 L167.3199,33.6799 L165.3279,34.6639 L163.8049,34.0779 L163.2889,34.8749 L164.1799,35.2269 L162.6329,35.9769 L162.0239,36.0239 Z M167.9999,37.8749 L166.7109,37.9449 L167.6489,39.5159 L168.9609,39.4449 L167.9999,37.8749 Z M162.0239,39.8439 L163.3359,39.7739 L164.2029,38.1089 L162.8909,38.1799 L162.0239,39.8439 Z M158.9529,37.9219 L159.9839,39.9379 L161.4139,39.8669 L160.3829,37.8519 L158.9529,37.9219 Z M157.5939,36.4689 L156.5629,35.1329 L155.1329,35.2269 L156.1639,36.5389 L157.5939,36.4689 Z M157.5939,34.8049 L156.5629,33.4919 L155.1329,33.5629 L156.1639,34.8979 L157.5939,34.8049 Z M168.7029,37.5699 L168.7029,36.7269 L166.0079,36.8909 L166.0079,36.4449 L164.7189,36.5159 L164.7189,36.9609 L162.0239,37.1019 L162.0239,37.9449 L164.7189,37.8049 L164.7189,39.6799 L166.0079,39.6089 L166.0079,37.7339 L168.7029,37.5699 Z M156.2109,44.9999 C155.2889,44.9839 154.5269,44.6719 153.9259,44.0629 C153.3239,43.4529 153.0159,42.6949 152.9999,41.7889 L152.9999,30.2109 C153.0159,29.2889 153.3239,28.5269 153.9259,27.9259 C154.5269,27.3239 155.2889,27.0159 156.2109,26.9999 L167.7889,26.9999 C168.7109,27.0159 169.4729,27.3239 170.0739,27.9259 C170.6759,28.5269 170.9839,29.2889 170.9999,30.2109 L170.9999,41.7889 C170.9839,42.6949 170.6759,43.4529 170.0739,44.0629 C169.4729,44.6719 168.7109,44.9839 167.7889,44.9999 L156.2109,44.9999 Z M170.5079,30.3519 L170.5079,30.2109 C170.4769,29.4449 170.2069,28.8079 169.6989,28.3009 C169.1909,27.7929 168.5549,27.5229 167.7889,27.4919 L156.2109,27.4919 C155.8359,27.4919 155.4839,27.5619 155.1559,27.7029 C154.8279,27.8429 154.5389,28.0389 154.2889,28.2889 C154.0389,28.5389 153.8439,28.8279 153.7029,29.1559 C153.5629,29.4839 153.4919,29.8359 153.4919,30.2109 L153.4919,31.2889 L170.5079,30.3519 Z M170.5079,41.4839 L153.5859,42.4689 C153.7579,43.0779 154.0779,43.5659 154.5469,43.9339 C155.0159,44.3009 155.5699,44.4919 156.2109,44.5079 L167.7889,44.5079 C168.5549,44.4769 169.1909,44.2069 169.6989,43.6989 C170.2069,43.1909 170.4769,42.5549 170.5079,41.7889 L170.5079,41.4839 Z" id="Fill-33" fill="#787878"></path>
            <path d="M194.2192,28.9404 C195.0822,29.6274 195.6702,30.4394 195.9822,31.3754 C196.2942,32.3104 196.3292,33.3374 196.0902,34.4574 C196.0422,34.6814 195.9502,34.8724 195.8142,35.0324 C195.6782,35.1924 195.4982,35.2724 195.2742,35.2724 C195.0502,35.2724 194.8582,35.1924 194.6982,35.0324 C194.5382,34.8734 194.4582,34.6814 194.4582,34.4574 C194.5382,34.3294 194.5782,33.7614 194.5782,32.7544 C194.5782,31.7474 194.1312,30.8754 193.2352,30.1404 C192.2762,29.5644 191.5052,29.2924 190.9212,29.3244 C190.3372,29.3564 190.0212,29.3964 189.9732,29.4444 C189.7492,29.4444 189.5572,29.3644 189.3982,29.2044 C189.2382,29.0444 189.1572,28.8574 189.1572,28.6404 C189.1572,28.4244 189.2382,28.2454 189.3982,28.1014 C189.5572,27.9574 189.7252,27.8694 189.9022,27.8374 C190.6692,27.6934 191.4282,27.7174 192.1802,27.9094 C192.9322,28.1014 193.6122,28.4444 194.2192,28.9404 L194.2192,28.9404 Z M192.9722,31.4114 C193.1962,31.6504 193.3642,31.9864 193.4752,32.4184 C193.5872,32.8504 193.5552,33.3774 193.3802,34.0014 C193.3162,34.3054 193.0922,34.4574 192.7082,34.4574 C192.5162,34.4574 192.3602,34.3774 192.2402,34.2174 C192.1202,34.0574 192.0722,33.8814 192.0962,33.6894 C192.1202,33.4984 192.1282,33.2864 192.1202,33.0544 C192.1122,32.8224 192.0402,32.6144 191.9052,32.4304 C191.7682,32.2464 191.6092,32.0984 191.4252,31.9864 C191.2412,31.8754 190.9972,31.8264 190.6932,31.8424 C190.1172,31.8584 189.8342,31.6674 189.8422,31.2674 C189.8492,30.8674 190.1012,30.6114 190.5972,30.4994 C190.8692,30.4354 191.2532,30.4714 191.7482,30.6074 C192.2442,30.7434 192.6522,31.0114 192.9722,31.4114 L192.9722,31.4114 Z M186.9512,38.4874 C187.0792,39.2544 186.8912,39.9544 186.3882,40.5864 C185.8842,41.2174 185.1772,41.6374 184.2652,41.8454 C183.3542,42.0044 182.5422,41.8894 181.8312,41.4974 C181.1192,41.1054 180.6752,40.5254 180.4992,39.7584 C180.3712,38.9904 180.5592,38.2874 181.0632,37.6474 C181.5672,37.0074 182.2742,36.5924 183.1862,36.4004 C184.0972,36.2244 184.9082,36.3324 185.6202,36.7244 C186.3322,37.1154 186.7752,37.7034 186.9512,38.4864 L186.9512,38.4874 Z M182.9222,40.5254 C183.2412,40.4454 183.4892,40.2934 183.6652,40.0694 C183.8412,39.8454 183.8972,39.5984 183.8332,39.3264 C183.7692,39.0544 183.6092,38.8544 183.3532,38.7264 C183.0972,38.5984 182.8052,38.5704 182.4782,38.6424 C182.1502,38.7144 181.9022,38.8664 181.7342,39.0984 C181.5662,39.3304 181.5142,39.5824 181.5782,39.8544 C181.6422,40.1264 181.8022,40.3254 182.0582,40.4534 C182.3142,40.5814 182.6022,40.6064 182.9222,40.5254 Z M184.5052,38.9184 C184.6332,38.9024 184.7332,38.8464 184.8042,38.7504 C184.8772,38.6544 184.9012,38.5504 184.8772,38.4394 C184.8532,38.3274 184.7892,38.2474 184.6852,38.1994 C184.5812,38.1504 184.4612,38.1394 184.3252,38.1634 C184.1892,38.1874 184.0852,38.2474 184.0132,38.3434 C183.9412,38.4394 183.9172,38.5394 183.9412,38.6434 C183.9652,38.7474 184.0292,38.8274 184.1332,38.8824 C184.2372,38.9384 184.3612,38.9504 184.5052,38.9184 L184.5052,38.9184 Z M193.4272,37.2394 C193.6992,37.8794 193.6672,38.6194 193.3322,39.4584 C192.9962,40.2974 192.3722,41.1494 191.4612,42.0124 C190.4062,42.9724 188.6422,43.6634 186.1722,44.0874 C183.7012,44.5114 181.2112,44.1314 178.7002,42.9484 C176.4942,41.5894 175.5262,40.1134 175.7982,38.5234 C176.0702,36.9324 176.4782,35.8564 177.0222,35.2964 C177.4212,34.7534 178.0732,33.9974 178.9762,33.0304 C179.8802,32.0634 180.8512,31.2914 181.8912,30.7154 C182.8342,30.2834 183.5822,30.0604 184.1342,30.0444 C184.6852,30.0274 185.0652,30.1004 185.2732,30.2594 C185.4652,30.3714 185.6292,30.5074 185.7642,30.6684 C185.9002,30.8274 185.9922,31.1074 186.0402,31.5064 C186.0402,31.9224 185.9722,32.2584 185.8362,32.5144 C185.7002,32.7704 185.6802,32.9624 185.7762,33.0904 C185.9042,33.1224 186.2922,33.0104 186.9402,32.7544 C187.5872,32.4984 188.2792,32.3544 189.0142,32.3224 C189.9422,32.3864 190.5252,32.5864 190.7652,32.9224 C191.0052,33.2574 191.1252,33.5054 191.1252,33.6664 C191.1572,33.8254 191.1492,34.0534 191.1012,34.3494 C191.0532,34.6454 190.9572,34.8734 190.8132,35.0324 C190.6372,35.2404 190.5972,35.3974 190.6932,35.5014 C190.7892,35.6054 190.9452,35.6654 191.1612,35.6804 C191.3772,35.6964 191.7332,35.8004 192.2282,35.9924 C192.7242,36.1844 193.1242,36.6004 193.4272,37.2394 L193.4272,37.2394 Z M184.7682,42.5404 C186.4792,42.2844 187.8502,41.7094 188.8822,40.8134 C189.9132,39.9184 190.3732,38.9104 190.2612,37.7914 C190.0692,36.6884 189.3582,35.8404 188.1262,35.2494 C186.8952,34.6574 185.4162,34.4654 183.6892,34.6734 C181.9942,34.9294 180.6272,35.5044 179.5882,36.4004 C178.5482,37.2954 178.0842,38.3034 178.1972,39.4224 C178.3882,40.5424 179.1042,41.3934 180.3432,41.9774 C181.5822,42.5604 183.0572,42.7484 184.7682,42.5404 L184.7682,42.5404 Z" id="Fill-35" fill="#787878"></path>
            <path d="M247.9873,12.1499 C248.2043,12.1499 248.3933,12.2209 248.5563,12.3629 C248.7183,12.5039 248.7993,12.6769 248.7993,12.8809 C248.7993,13.0859 248.7203,13.2599 248.5623,13.4059 C248.4043,13.5519 248.2143,13.6249 247.9933,13.6249 C247.7733,13.6249 247.5853,13.5539 247.4313,13.4129 C247.2773,13.2709 247.1973,13.0959 247.1943,12.8879 C247.1893,12.6789 247.2663,12.5039 247.4253,12.3619 C247.5833,12.2209 247.7713,12.1499 247.9873,12.1499 L247.9873,12.1499 Z M248.6993,6.6999 L248.5373,11.4249 L247.4373,11.4249 L247.2873,6.6999 L248.6993,6.6999 Z M243.7563,14.2439 C242.6273,13.1149 242.0413,11.6999 242.0003,9.9999 C242.0413,8.2999 242.6273,6.8849 243.7563,5.7559 C244.8853,4.6269 246.3003,4.0419 248.0003,3.9999 C249.7003,4.0419 251.1143,4.6269 252.2433,5.7559 C253.3733,6.8849 253.9583,8.2999 254.0003,9.9999 C253.9583,11.6999 253.3733,13.1149 252.2433,14.2439 C251.1143,15.3729 249.7003,15.9589 248.0003,15.9999 C246.3003,15.9589 244.8853,15.3729 243.7563,14.2439 L243.7563,14.2439 Z M251.7063,13.7059 C252.6943,12.7189 253.2083,11.4829 253.2503,9.9999 C253.2083,8.5169 252.6943,7.2809 251.7063,6.2939 C250.7183,5.3059 249.4833,4.7919 248.0003,4.7499 C246.5163,4.7919 245.2813,5.3059 244.2933,6.2939 C243.3063,7.2809 242.7913,8.5169 242.7503,9.9999 C242.7913,11.4829 243.3063,12.7189 244.2933,13.7059 C245.2813,14.6939 246.5163,15.2089 248.0003,15.2499 C249.4833,15.2089 250.7183,14.6939 251.7063,13.7059 L251.7063,13.7059 Z" id="Fill-37" fill="#CA141D"></path>
            <path d="M273.8242,3.1499 C273.7092,3.0179 273.6742,2.8669 273.7182,2.6999 C273.7622,2.5319 273.8682,2.4259 274.0362,2.3819 C274.2042,2.3379 274.3542,2.3729 274.4862,2.4879 L278.1672,6.1689 C278.2562,6.2659 278.3002,6.3769 278.3002,6.4999 C278.3002,6.6239 278.2562,6.7339 278.1672,6.8309 L274.4862,10.5119 C274.3542,10.6269 274.2042,10.6619 274.0362,10.6179 C273.8682,10.5739 273.7622,10.4679 273.7182,10.2999 C273.6742,10.1329 273.7092,9.9829 273.8242,9.8499 L277.1872,6.4999 L273.8242,3.1499 Z" id="Fill-39" fill="#A3A3A3"></path>
            <mask id="mask-4" fill="white">
                <use xlink:href="#path-3"></use>
            </mask>
            <g id="Clip-42"></g>
        </g>
    </g>
</svg>