<?xml version="1.0" encoding="UTF-8"?>
<svg width="362px" height="189px" viewBox="0 0 362 189" version="1.1" xmlns="http://www.w3.org/2000/svg" xmlns:xlink="http://www.w3.org/1999/xlink">
    <!-- Generator: Sketch 56.3 (81716) - https://sketch.com -->
    <title>画板</title>
    <desc>Created with Sketch.</desc>
    <g id="画板" stroke="none" stroke-width="1" fill="none" fill-rule="evenodd">
        <g id="编组-6" transform="translate(179.000000, 0.000000)">
            <rect id="矩形" x="0" y="0" width="20" height="20"></rect>
            <path d="M3.34524346,13.1906682 C3.05584996,10.4082119 5.07576601,9.1756021 5.36029062,6.48837373 C5.36029062,6.48837373 6.02420947,7.75295799 5.99259328,9.1756021 C5.99259328,9.1756021 9.31212433,5.59433118 9.09081102,1.82079169 C9.09081102,1.82079169 12.1890498,2.85268081 13.4220179,7.62649324 C13.4220179,7.62649324 14.6233698,6.96259546 13.8013911,4.8444163 C13.8013911,4.8444163 17.7455315,8.2956393 17.0877462,12.3774366 C16.318419,17.1514809 12.4419582,18.4312831 9.55124809,18.4312831 C7.2270157,18.4312831 3.71409898,16.7369716 3.34524346,13.1906682" id="Fill-1" fill="#CF0A2C" fill-rule="nonzero"></path>
        </g>
        <g id="编组-2" transform="translate(71.000000, 0.000000)">
            <rect id="矩形" x="0" y="0" width="14" height="14"></rect>
            <polyline id="形状" stroke="#C9C9C9" stroke-linecap="round" stroke-linejoin="round" points="3 5 7 8.99997714 11 5"></polyline>
        </g>
        <g id="编组-2复制" transform="translate(85.000000, 0.000000)">
            <rect id="矩形" x="0" y="0" width="14" height="14"></rect>
            <polyline id="形状" stroke="#CA141D" stroke-linecap="round" stroke-linejoin="round" transform="translate(7.000000, 6.999989) scale(-1, 1) rotate(-180.000000) translate(-7.000000, -6.999989) " points="3 5 7 8.99997714 11 5"></polyline>
        </g>
        <g id="编组-2复制备份" transform="translate(85.000000, 146.000000)">
            <rect id="矩形" x="0" y="0" width="14" height="14"></rect>
            <polyline id="形状" stroke="#00B5E2" stroke-linecap="round" stroke-linejoin="round" transform="translate(7.000000, 6.999989) scale(-1, 1) rotate(-180.000000) translate(-7.000000, -6.999989) " points="3 5 7 8.99997714 11 5"></polyline>
        </g>
        <g id="编组">
            <rect id="矩形" x="0" y="0" width="30" height="30"></rect>
            <path d="M18.1326111,14.0176842 L18.1326111,16.2763104 C18.1326111,16.675928 17.7883112,17 17.3637502,17 C16.9391601,17 16.5949764,16.675928 16.5949764,16.2763104 L16.5949764,14.0176842 L14.2652251,14.0176842 L14.2652251,16.2763104 C14.2651089,16.675928 13.9209252,16.9997811 13.4963642,16.9997811 C13.0717741,16.9997811 12.7275904,16.675928 12.7275904,16.2763104 L12.7275904,14.0176842 L12.4713131,14.0176842 C12.1066936,14.0176842 11.7570739,13.8812862 11.499285,13.63867 C11.2415252,13.3960538 11.0967587,13.0669746 11.0967587,12.7238863 L11.0967587,6.60575565 L19.8565817,6.60575565 L19.8565817,12.7238863 C19.8565817,13.0669746 19.7117862,13.3960538 19.4540264,13.63867 C19.1962665,13.8812862 18.8466178,14.0176842 18.4819982,14.0176842 L18.1326111,14.0176842 Z M22,7.32933852 L22,10.6186252 C22,11.0183796 21.6557001,11.3423421 21.2311391,11.3423421 C20.806549,11.3423421 20.4623653,11.0183796 20.4623653,10.6186252 L20.4623653,7.32933852 C20.4636153,6.93026814 20.8071304,6.60693494 21.2311391,6.60575839 C21.655264,6.60693494 21.9986337,6.93026814 22,7.32933852 Z M9,10.6186224 L9,7.32933579 C9.00124999,6.9302654 9.34473598,6.60693221 9.76874467,6.60575565 C10.1928696,6.60693221 10.5362394,6.9302654 10.5376347,7.32933579 L10.5376347,10.6186224 C10.5362394,11.0178296 10.1928696,11.3411628 9.76874467,11.3423394 C9.34473598,11.3411628 9.00124999,11.0178296 9,10.6186224 Z M19.8571108,6.07947526 L11.0977238,6.07947526 C11.1116772,4.89367394 11.669435,3.74286824 12.6771896,2.9541399 L13.0537277,2.68875878 C14.516392,1.77408454 16.4181811,1.7701171 17.8851768,2.67871704 L18.2606974,2.94100629 C19.2785974,3.72951573 19.8431283,4.88647782 19.8571108,6.07947526 Z M13.49637,3.75501683 C13.2097441,3.75501683 12.9773038,3.97369153 12.9773038,4.24355997 C12.9773038,4.51331896 13.2097441,4.73213047 13.49637,4.73213047 C13.7830831,4.73213047 14.0154071,4.51331896 14.0154071,4.24355997 C14.0154071,3.97369153 13.7830831,3.75501683 13.49637,3.75501683 Z M17.363756,3.75501683 C17.0771301,3.75501683 16.8446898,3.97369153 16.8446898,4.24355997 C16.8446898,4.51331896 17.0771301,4.73213047 17.363756,4.73213047 C17.6504691,4.73213047 17.8827931,4.51331896 17.8827931,4.24355997 C17.8827931,3.97369153 17.6504691,3.75501683 17.363756,3.75501683 Z" id="Combined-Shape" fill="#777777" fill-rule="nonzero"></path>
            <path d="M5.4453125,28 L4.58203125,28 L3.96484375,26.34375 L1.4453125,26.34375 L0.86328125,28 L-1.77635684e-15,28 L2.3046875,21.9492188 L3.140625,21.9492188 L5.4453125,28 Z M3.72265625,25.6601562 L2.80859375,23.1445312 C2.77994777,23.0638017 2.74869809,22.9231781 2.71484375,22.7226562 L2.6953125,22.7226562 C2.66666652,22.9049488 2.63411477,23.0455724 2.59765625,23.1445312 L1.69140625,25.6601562 L3.72265625,25.6601562 Z M9.80910715,28 L9.0473884,28 L9.0473884,25.5429688 C9.0473884,24.6549435 8.72317289,24.2109375 8.07473215,24.2109375 C7.73879297,24.2109375 7.46275406,24.3359362 7.24660715,24.5859375 C7.03046024,24.8359388 6.9223884,25.1523418 6.9223884,25.5351562 L6.9223884,28 L6.1567634,28 L6.1567634,23.6796875 L6.9223884,23.6796875 L6.9223884,24.3945312 L6.9380134,24.3945312 C7.26353586,23.8502577 7.73618738,23.578125 8.35598215,23.578125 C8.82994285,23.578125 9.19061633,23.7298162 9.4380134,24.0332031 C9.68541047,24.3365901 9.80910715,24.7786429 9.80910715,25.359375 L9.80910715,28 Z M14.770558,28 L14.004933,28 L14.004933,27.28125 L13.989308,27.28125 C13.6742023,27.8281277 13.1846239,28.1015625 12.520558,28.1015625 C11.9736803,28.1015625 11.5387888,27.906903 11.2158705,27.5175781 C10.8929523,27.1282533 10.7314955,26.6028679 10.7314955,25.9414062 C10.7314955,25.227861 10.9137854,24.6556011 11.2783705,24.2246094 C11.6429557,23.7936176 12.1195134,23.578125 12.708058,23.578125 C13.2966027,23.578125 13.7236817,23.8072894 13.989308,24.265625 L14.004933,24.265625 L14.004933,21.6054688 L14.770558,21.6054688 L14.770558,28 Z M14.0088393,25.4296875 C14.0088393,25.0833316 13.8949081,24.793621 13.6670424,24.5605469 C13.4391767,24.3274728 13.1585805,24.2109375 12.8252455,24.2109375 C12.4189935,24.2109375 12.0986842,24.3626287 11.864308,24.6660156 C11.6299319,24.9694026 11.5127455,25.3828099 11.5127455,25.90625 C11.5127455,26.3880232 11.6253746,26.7688788 11.8506362,27.0488281 C12.0758977,27.3287774 12.3760249,27.46875 12.7510268,27.46875 C13.1208203,27.46875 13.4229006,27.3313816 13.6572768,27.0566406 C13.891653,26.7818997 14.0088393,26.4401062 14.0088393,26.03125 L14.0088393,25.4296875 Z M18.388259,24.4375 C18.2606541,24.3463537 18.0848747,24.3007812 17.8609152,24.3007812 C17.5640387,24.3007812 17.3192495,24.4394517 17.1265402,24.7167969 C16.9338309,24.994142 16.8374777,25.3593727 16.8374777,25.8125 L16.8374777,28 L16.0718527,28 L16.0718527,23.6796875 L16.8374777,23.6796875 L16.8374777,24.5585938 L16.8531027,24.5585938 C17.0718527,23.9231739 17.4494542,23.6054688 17.9859152,23.6054688 C18.1603952,23.6054688 18.2945085,23.6249998 18.388259,23.6640625 L18.388259,24.4375 Z M18.6583036,25.8867188 C18.6583036,25.1731735 18.8575204,24.6100281 19.2559598,24.1972656 C19.6543993,23.7845031 20.1947585,23.578125 20.8770536,23.578125 C21.5254943,23.578125 22.0339528,23.7766907 22.4024442,24.1738281 C22.7709357,24.5709655 22.9551786,25.1197882 22.9551786,25.8203125 C22.9551786,26.5026076 22.758566,27.0533833 22.3653348,27.4726562 C21.9721037,27.8919292 21.4447652,28.1015625 20.7833036,28.1015625 C20.137467,28.1015625 19.6218472,27.8984395 19.2364286,27.4921875 C18.85101,27.0859355 18.6583036,26.5507846 18.6583036,25.8867188 Z M19.4395536,25.8632812 C19.4395536,26.3606796 19.5652034,26.7526027 19.8165067,27.0390625 C20.0678101,27.3255223 20.4056973,27.46875 20.8301786,27.46875 C21.2676808,27.46875 21.6010108,27.3287774 21.8301786,27.0488281 C22.0593464,26.7688788 22.1739286,26.3671901 22.1739286,25.84375 C22.1739286,25.3177057 22.0593464,24.9140639 21.8301786,24.6328125 C21.6010108,24.3515611 21.2676808,24.2109375 20.8301786,24.2109375 C20.400489,24.2109375 20.0612996,24.3580714 19.8126005,24.6523438 C19.5639013,24.9466161 19.4395536,25.3502579 19.4395536,25.8632812 Z M23.8736607,22.15625 C23.8736607,22.0208327 23.9198842,21.9069015 24.0123326,21.8144531 C24.104781,21.7220047 24.2187122,21.6757812 24.3541295,21.6757812 C24.492151,21.6757812 24.6086863,21.7213537 24.7037389,21.8125 C24.7987914,21.9036463 24.846317,22.0182285 24.846317,22.15625 C24.846317,22.2916673 24.7987914,22.4042964 24.7037389,22.4941406 C24.6086863,22.5839848 24.492151,22.6289062 24.3541295,22.6289062 C24.216108,22.6289062 24.1015258,22.5839848 24.0103795,22.4941406 C23.9192332,22.4042964 23.8736607,22.2916673 23.8736607,22.15625 Z M23.9635045,28 L23.9635045,23.6796875 L24.7291295,23.6796875 L24.7291295,28 L23.9635045,28 Z M29.7804241,28 L29.0147991,28 L29.0147991,27.28125 L28.9991741,27.28125 C28.6840684,27.8281277 28.19449,28.1015625 27.5304241,28.1015625 C26.9835464,28.1015625 26.5486549,27.906903 26.2257366,27.5175781 C25.9028184,27.1282533 25.7413616,26.6028679 25.7413616,25.9414062 C25.7413616,25.227861 25.9236515,24.6556011 26.2882366,24.2246094 C26.6528218,23.7936176 27.1293795,23.578125 27.7179241,23.578125 C28.3064688,23.578125 28.7335478,23.8072894 28.9991741,24.265625 L29.0147991,24.265625 L29.0147991,21.6054688 L29.7804241,21.6054688 L29.7804241,28 Z M29.0187054,25.4296875 C29.0187054,25.0833316 28.9047742,24.793621 28.6769085,24.5605469 C28.4490428,24.3274728 28.1684466,24.2109375 27.8351116,24.2109375 C27.4288596,24.2109375 27.1085503,24.3626287 26.8741741,24.6660156 C26.639798,24.9694026 26.5226116,25.3828099 26.5226116,25.90625 C26.5226116,26.3880232 26.6352407,26.7688788 26.8605023,27.0488281 C27.0857638,27.3287774 27.385891,27.46875 27.7608929,27.46875 C28.1306864,27.46875 28.4327667,27.3313816 28.6671429,27.0566406 C28.9015191,26.7818997 29.0187054,26.4401062 29.0187054,26.03125 L29.0187054,25.4296875 Z" id="Android" fill="#777777" fill-rule="nonzero" opacity="0.8953125"></path>
        </g>
        <g id="编组" transform="translate(32.000000, 0.000000)" fill-rule="nonzero">
            <rect id="矩形" fill="#FFFFFF" x="0" y="0" width="30" height="30"></rect>
            <path d="M17.7834619,7.30851156 C14.8560081,7.30851156 12.5444117,9.50173252 12.5444117,12.2042935 C12.5444117,12.65507 12.6142945,13.0883091 12.7347562,13.5019131 C12.5444117,13.5175236 12.354043,13.5273533 12.1597891,13.5273533 C11.3905439,13.5273533 10.7727925,13.369273 10.0016533,13.2170222 L7.84929651,14.3019492 L8.46508117,12.4404018 C6.92270572,11.3574748 6,9.9622899 6,8.26272537 C6,5.31812903 8.77389621,3 12.1597891,3 C15.190149,3 17.8437049,4.85183969 18.3759119,7.34556202 C18.181658,7.32212193 17.9835191,7.30851156 17.7834619,7.30851156 Z M14.4694915,5.63036264 C14.0090856,5.63036264 13.5447947,5.93666915 13.5447947,6.40308045 C13.5447947,6.86746726 14.0071917,7.17777396 14.4694915,7.17777396 C14.9337825,7.17777396 15.2406307,6.86746726 15.2406307,6.40308045 C15.2406307,5.93666915 14.9337825,5.63036264 14.4694915,5.63036264 Z M10.1589989,7.17777396 C10.6212987,7.17777396 10.9282441,6.86746726 10.9282441,6.40308045 C10.9282441,5.93666915 10.6212987,5.63036264 10.1589989,5.63036264 C9.69660192,5.63036264 9.230417,5.93666915 9.230417,6.40308045 C9.230417,6.86746726 9.69660192,7.17777396 10.1589989,7.17777396 Z M23.4051679,12.1320708 C23.4051679,13.5273533 22.4843562,14.7624334 21.2470321,15.6932071 L21.7112259,17.2406428 L20.0212661,16.3118692 C19.4035146,16.4659249 18.7857632,16.6220783 18.1719696,16.6220783 C15.2406307,16.6220783 12.9329194,14.6102802 12.9329194,12.1320708 C12.9329194,9.65978844 15.2406307,7.64216077 18.1719696,7.64216077 C20.9400868,7.64216077 23.4051679,9.65788591 23.4051679,12.1320708 Z M16.4741425,11.3574748 C16.9403517,11.3574748 17.2453788,11.0510464 17.2453788,10.7389103 C17.2453788,10.4306037 16.9403517,10.1203702 16.4741425,10.1203702 C16.1672215,10.1203702 15.8583821,10.4306037 15.8583821,10.7389103 C15.8583821,11.0510464 16.1672215,11.3574748 16.4741425,11.3574748 Z M19.8619294,11.3574748 C20.3243264,11.3574748 20.6331657,11.0510464 20.6331657,10.7389103 C20.6331657,10.4306037 20.3243264,10.1203702 19.8619294,10.1203702 C19.5569752,10.1203702 19.2500541,10.4306037 19.2500541,10.7389103 C19.2500541,11.0510464 19.5569752,11.3574748 19.8619294,11.3574748 Z" id="合并形状" fill="#777777"></path>
            <path d="M8.16056918,21.9492188 L6.46525668,28 L5.55510043,28 L4.33635043,23.640625 C4.28166265,23.4427073 4.24911089,23.2343761 4.23869418,23.015625 L4.22306918,23.015625 C4.2074441,23.2317719 4.17098613,23.437499 4.11369418,23.6328125 L2.88322543,28 L1.98088168,28 L0.226975425,21.9492188 L1.09025668,21.9492188 L2.32463168,26.5195312 C2.37931945,26.7252614 2.41187121,26.9322906 2.42228793,27.140625 L2.44572543,27.140625 C2.45874632,26.9843742 2.50171464,26.777345 2.57463168,26.5195312 L3.88322543,21.9492188 L4.65275668,21.9492188 L5.90275668,26.5546875 C5.94442355,26.7057299 5.97827738,26.8984363 6.00431918,27.1328125 L6.01994418,27.1328125 C6.03296507,26.9635408 6.07072511,26.7656261 6.13322543,26.5390625 L7.32072543,21.9492188 L8.16056918,21.9492188 Z M12.1923326,26.0351562 L9.16889508,26.0351562 C9.18191597,26.4960961 9.30821679,26.8522123 9.54780133,27.1035156 C9.78738586,27.354819 10.1220179,27.4804688 10.5517076,27.4804688 C11.036085,27.4804688 11.480091,27.3255224 11.8837388,27.015625 L11.8837388,27.6992188 C11.5035286,27.9674493 10.9996274,28.1015625 10.3720201,28.1015625 C9.74701695,28.1015625 9.25939162,27.9036478 8.90912945,27.5078125 C8.55886728,27.1119772 8.38373883,26.5625035 8.38373883,25.859375 C8.38373883,25.1979134 8.5757942,24.6523459 8.9599107,24.2226562 C9.3440272,23.7929666 9.82123597,23.578125 10.3915513,23.578125 C10.9566583,23.578125 11.3980602,23.7597638 11.7157701,24.1230469 C12.03348,24.4863299 12.1923326,24.9947884 12.1923326,25.6484375 L12.1923326,26.0351562 Z M11.4267076,25.421875 C11.4241034,25.031248 11.3316564,24.7291677 11.1493638,24.515625 C10.9670712,24.3020823 10.7105634,24.1953125 10.3798326,24.1953125 C10.0751436,24.1953125 9.81147431,24.3085926 9.58881695,24.5351562 C9.36615959,24.7617199 9.22618703,25.0572898 9.16889508,25.421875 L11.4267076,25.421875 Z M17.3842522,27.75 C16.9389375,27.9843762 16.3803493,28.1015625 15.708471,28.1015625 C14.8412791,28.1015625 14.1485777,27.8261746 13.630346,27.2753906 C13.1121142,26.7246066 12.8530022,25.9960983 12.8530022,25.0898438 C12.8530022,24.1158805 13.144666,23.3320342 13.7280022,22.7382812 C14.3113385,22.1445283 15.0522165,21.8476562 15.9506585,21.8476562 C16.5287864,21.8476562 17.0066462,21.9296867 17.3842522,22.09375 L17.3842522,22.9101562 C16.9519584,22.6705717 16.4767027,22.5507812 15.958471,22.5507812 C15.2839884,22.5507812 14.7345148,22.7753884 14.3100335,23.2246094 C13.8855522,23.6738304 13.6733147,24.2799441 13.6733147,25.0429688 C13.6733147,25.7669307 13.8712294,26.3417947 14.2670647,26.7675781 C14.6629,27.1933615 15.181124,27.40625 15.8217522,27.40625 C16.4207136,27.40625 16.9415417,27.2708347 17.3842522,27 L17.3842522,27.75 Z M22.0800781,28 L21.3183594,28 L21.3183594,25.515625 C21.3183594,24.645829 20.9954459,24.2109375 20.3496094,24.2109375 C20.0188786,24.2109375 19.7441417,24.3378894 19.5253906,24.5917969 C19.3066395,24.8457044 19.1972656,25.1653627 19.1972656,25.5507812 L19.1972656,28 L18.4316406,28 L18.4316406,21.6054688 L19.1972656,21.6054688 L19.1972656,24.390625 L19.2128906,24.390625 C19.5436214,23.8489556 20.0136688,23.578125 20.6230469,23.578125 C21.5944059,23.578125 22.0800781,24.1653587 22.0800781,25.3398438 L22.0800781,28 Z M23.3930915,23.9804688 C23.8227812,23.7122382 24.31887,23.578125 24.8813728,23.578125 C25.9230447,23.578125 26.4438728,24.1249945 26.4438728,25.21875 L26.4438728,28 L25.6860603,28 L25.6860603,27.3320312 L25.666529,27.3320312 C25.3670484,27.8450546 24.9256465,28.1015625 24.3423103,28.1015625 C23.9230373,28.1015625 23.5897073,27.9882824 23.3423103,27.7617188 C23.0949132,27.5351551 22.9712165,27.2291686 22.9712165,26.84375 C22.9712165,26.0364543 23.4490763,25.5664069 24.4048103,25.4335938 L25.6860603,25.2539062 C25.6860603,24.5481736 25.3943965,24.1953125 24.8110603,24.1953125 C24.2928285,24.1953125 23.820177,24.3697899 23.3930915,24.71875 L23.3930915,23.9804688 Z M24.6743415,25.96875 C24.3201731,26.0156252 24.0760349,26.104166 23.9419197,26.234375 C23.8078044,26.364584 23.7407478,26.5468738 23.7407478,26.78125 C23.7407478,26.9869802 23.8136637,27.1549473 23.9594978,27.2851562 C24.1053318,27.4153652 24.2980382,27.4804688 24.5376228,27.4804688 C24.8709578,27.4804688 25.1456946,27.3632824 25.3618415,27.1289062 C25.5779884,26.8945301 25.6860603,26.6002622 25.6860603,26.2460938 L25.6860603,25.8320312 L24.6743415,25.96875 Z M29.7217299,27.9570312 C29.5550624,28.0481775 29.3298043,28.09375 29.0459487,28.09375 C28.2725073,28.09375 27.8857924,27.6653689 27.8857924,26.8085938 L27.8857924,24.3125 L27.1436049,24.3125 L27.1436049,23.6796875 L27.8857924,23.6796875 L27.8857924,22.640625 L28.6475112,22.3984375 L28.6475112,23.6796875 L29.7217299,23.6796875 L29.7217299,24.3125 L28.6475112,24.3125 L28.6475112,26.671875 C28.6475112,26.9557306 28.6956878,27.1588536 28.7920424,27.28125 C28.8883971,27.4036464 29.0485517,27.4648438 29.2725112,27.4648438 C29.444387,27.4648438 29.5941251,27.4166671 29.7217299,27.3203125 L29.7217299,27.9570312 Z" id="WeChat" fill="#777777" opacity="0.8953125"></path>
        </g>
        <g id="编组-3" transform="translate(99.000000, 0.000000)">
            <rect id="矩形" x="0" y="0" width="20" height="20"></rect>
            <g id="编组-4" transform="translate(4.069853, 4.567674)" fill="#777777" fill-rule="nonzero">
                <path d="M2.44772736,2.55085266 L3.43849883,6.87489828 C3.48339202,7.07082657 3.6577254,7.20973262 3.85873111,7.20973262 L9.94184605,7.20973262 C10.1279584,7.20973262 10.2930614,7.09030254 10.3513097,6.91354012 L11.7889396,2.55085266 L2.44772736,2.55085266 Z M2.2501606,1.68860776 L11.7889396,1.68860776 C11.8806238,1.68860776 11.9717213,1.70323063 12.0587995,1.73192537 C12.5110805,1.88096487 12.7569064,2.3684315 12.6078669,2.82071255 L11.170237,7.1834 C10.9954922,7.71368727 10.5001832,8.07197752 9.94184605,8.07197752 L3.85873111,8.07197752 C3.25571399,8.07197752 2.73271382,7.65525937 2.59803428,7.06747449 L1.17622585,0.862244898 L1.77635684e-15,0.862244898 L1.77635684e-15,0 L1.17622585,0 C1.57823727,0 1.92690404,0.277812101 2.01669041,0.66966869 L2.2501606,1.68860776 Z" id="路径-6"></path>
                <path d="M4.0832354,11.7285313 C3.3099651,11.7285313 2.68310566,11.1016719 2.68310566,10.3284016 C2.68310566,9.55513129 3.3099651,8.92827185 4.0832354,8.92827185 C4.8565057,8.92827185 5.48336514,9.55513129 5.48336514,10.3284016 C5.48336514,11.1016719 4.8565057,11.7285313 4.0832354,11.7285313 Z M4.0832354,10.8662864 C4.38030099,10.8662864 4.62112024,10.6254672 4.62112024,10.3284016 C4.62112024,10.031336 4.38030099,9.79051675 4.0832354,9.79051675 C3.7861698,9.79051675 3.54535056,10.031336 3.54535056,10.3284016 C3.54535056,10.6254672 3.7861698,10.8662864 4.0832354,10.8662864 Z" id="椭圆形"></path>
                <path d="M9.4127755,11.7285313 C8.6395052,11.7285313 8.01264576,11.1016719 8.01264576,10.3284016 C8.01264576,9.55513129 8.6395052,8.92827185 9.4127755,8.92827185 C10.1860458,8.92827185 10.8129052,9.55513129 10.8129052,10.3284016 C10.8129052,11.1016719 10.1860458,11.7285313 9.4127755,11.7285313 Z M9.4127755,10.8662864 C9.70984109,10.8662864 9.95066034,10.6254672 9.95066034,10.3284016 C9.95066034,10.031336 9.70984109,9.79051675 9.4127755,9.79051675 C9.1157099,9.79051675 8.87489066,10.031336 8.87489066,10.3284016 C8.87489066,10.6254672 9.1157099,10.8662864 9.4127755,10.8662864 Z" id="椭圆形-copy-2"></path>
            </g>
        </g>
        <g id="编组-3复制" transform="translate(119.000000, 0.000000)">
            <rect id="矩形" x="0" y="0" width="20" height="20"></rect>
            <g id="编组-4" transform="translate(4.069853, 4.567674)" fill="#CF0A2C" fill-rule="nonzero">
                <path d="M2.44772736,2.55085266 L3.43849883,6.87489828 C3.48339202,7.07082657 3.6577254,7.20973262 3.85873111,7.20973262 L9.94184605,7.20973262 C10.1279584,7.20973262 10.2930614,7.09030254 10.3513097,6.91354012 L11.7889396,2.55085266 L2.44772736,2.55085266 Z M2.2501606,1.68860776 L11.7889396,1.68860776 C11.8806238,1.68860776 11.9717213,1.70323063 12.0587995,1.73192537 C12.5110805,1.88096487 12.7569064,2.3684315 12.6078669,2.82071255 L11.170237,7.1834 C10.9954922,7.71368727 10.5001832,8.07197752 9.94184605,8.07197752 L3.85873111,8.07197752 C3.25571399,8.07197752 2.73271382,7.65525937 2.59803428,7.06747449 L1.17622585,0.862244898 L1.77635684e-15,0.862244898 L1.77635684e-15,0 L1.17622585,0 C1.57823727,0 1.92690404,0.277812101 2.01669041,0.66966869 L2.2501606,1.68860776 Z" id="路径-6"></path>
                <path d="M4.0832354,11.7285313 C3.3099651,11.7285313 2.68310566,11.1016719 2.68310566,10.3284016 C2.68310566,9.55513129 3.3099651,8.92827185 4.0832354,8.92827185 C4.8565057,8.92827185 5.48336514,9.55513129 5.48336514,10.3284016 C5.48336514,11.1016719 4.8565057,11.7285313 4.0832354,11.7285313 Z M4.0832354,10.8662864 C4.38030099,10.8662864 4.62112024,10.6254672 4.62112024,10.3284016 C4.62112024,10.031336 4.38030099,9.79051675 4.0832354,9.79051675 C3.7861698,9.79051675 3.54535056,10.031336 3.54535056,10.3284016 C3.54535056,10.6254672 3.7861698,10.8662864 4.0832354,10.8662864 Z" id="椭圆形"></path>
                <path d="M9.4127755,11.7285313 C8.6395052,11.7285313 8.01264576,11.1016719 8.01264576,10.3284016 C8.01264576,9.55513129 8.6395052,8.92827185 9.4127755,8.92827185 C10.1860458,8.92827185 10.8129052,9.55513129 10.8129052,10.3284016 C10.8129052,11.1016719 10.1860458,11.7285313 9.4127755,11.7285313 Z M9.4127755,10.8662864 C9.70984109,10.8662864 9.95066034,10.6254672 9.95066034,10.3284016 C9.95066034,10.031336 9.70984109,9.79051675 9.4127755,9.79051675 C9.1157099,9.79051675 8.87489066,10.031336 8.87489066,10.3284016 C8.87489066,10.6254672 9.1157099,10.8662864 9.4127755,10.8662864 Z" id="椭圆形-copy-2"></path>
            </g>
        </g>
        <g id="编组-3复制备份" transform="translate(100.000000, 146.000000)">
            <rect id="矩形" x="0" y="0" width="20" height="20"></rect>
            <g id="编组-4" transform="translate(4.069853, 4.567674)" fill="#00B5E2" fill-rule="nonzero">
                <path d="M2.44772736,2.55085266 L3.43849883,6.87489828 C3.48339202,7.07082657 3.6577254,7.20973262 3.85873111,7.20973262 L9.94184605,7.20973262 C10.1279584,7.20973262 10.2930614,7.09030254 10.3513097,6.91354012 L11.7889396,2.55085266 L2.44772736,2.55085266 Z M2.2501606,1.68860776 L11.7889396,1.68860776 C11.8806238,1.68860776 11.9717213,1.70323063 12.0587995,1.73192537 C12.5110805,1.88096487 12.7569064,2.3684315 12.6078669,2.82071255 L11.170237,7.1834 C10.9954922,7.71368727 10.5001832,8.07197752 9.94184605,8.07197752 L3.85873111,8.07197752 C3.25571399,8.07197752 2.73271382,7.65525937 2.59803428,7.06747449 L1.17622585,0.862244898 L1.77635684e-15,0.862244898 L1.77635684e-15,0 L1.17622585,0 C1.57823727,0 1.92690404,0.277812101 2.01669041,0.66966869 L2.2501606,1.68860776 Z" id="路径-6"></path>
                <path d="M4.0832354,11.7285313 C3.3099651,11.7285313 2.68310566,11.1016719 2.68310566,10.3284016 C2.68310566,9.55513129 3.3099651,8.92827185 4.0832354,8.92827185 C4.8565057,8.92827185 5.48336514,9.55513129 5.48336514,10.3284016 C5.48336514,11.1016719 4.8565057,11.7285313 4.0832354,11.7285313 Z M4.0832354,10.8662864 C4.38030099,10.8662864 4.62112024,10.6254672 4.62112024,10.3284016 C4.62112024,10.031336 4.38030099,9.79051675 4.0832354,9.79051675 C3.7861698,9.79051675 3.54535056,10.031336 3.54535056,10.3284016 C3.54535056,10.6254672 3.7861698,10.8662864 4.0832354,10.8662864 Z" id="椭圆形"></path>
                <path d="M9.4127755,11.7285313 C8.6395052,11.7285313 8.01264576,11.1016719 8.01264576,10.3284016 C8.01264576,9.55513129 8.6395052,8.92827185 9.4127755,8.92827185 C10.1860458,8.92827185 10.8129052,9.55513129 10.8129052,10.3284016 C10.8129052,11.1016719 10.1860458,11.7285313 9.4127755,11.7285313 Z M9.4127755,10.8662864 C9.70984109,10.8662864 9.95066034,10.6254672 9.95066034,10.3284016 C9.95066034,10.031336 9.70984109,9.79051675 9.4127755,9.79051675 C9.1157099,9.79051675 8.87489066,10.031336 8.87489066,10.3284016 C8.87489066,10.6254672 9.1157099,10.8662864 9.4127755,10.8662864 Z" id="椭圆形-copy-2"></path>
            </g>
        </g>
        <g id="编组-5" transform="translate(262.000000, 0.000000)">
            <circle id="椭圆形" fill="#F3F3F3" fill-rule="nonzero" cx="50" cy="50" r="50"></circle>
            <g id="分组-2" transform="translate(19.000000, 29.000000)" stroke="#979797" stroke-width="2">
                <circle id="椭圆形" cx="21" cy="43" r="4"></circle>
                <circle id="椭圆形-copy" cx="44" cy="43" r="4"></circle>
                <path d="M0.0484351299,0.337495352 L5.98916538,0.337495352 C7.11937115,0.337495352 8.10901082,1.09576621 8.40306647,2.18704818 L15.6919618,29.2371657 C16.2800731,31.4197297 18.2593524,32.9362714 20.519764,32.9362714 L46.6417093,32.9362714 C48.8528447,32.9362714 50.8014161,31.4839409 51.4332374,29.3649973 L57.0871676,10.4033721 C57.4816994,9.08022815 56.7289104,7.68777684 55.4057665,7.29324507 C55.1739428,7.22412046 54.9333135,7.18900916 54.6914035,7.18900916 L9.9858951,7.18900916" id="路径-3"></path>
                <path d="M28.5,14.5 L38.4521363,24.4521363" id="路径-4-copy-5" stroke-linecap="round" stroke-linejoin="round"></path>
                <path d="M28.547864,14.5 L38.5000003,24.4521363" id="路径-4-copy-5" stroke-linecap="round" stroke-linejoin="round" transform="translate(33.523932, 19.476068) scale(-1, 1) translate(-33.523932, -19.476068) "></path>
            </g>
        </g>
        <g id="商城首页" transform="translate(202.000000, 0.000000)" fill-rule="nonzero">
            <g id="编组">
                <circle id="Oval" fill="#F7F7F7" cx="25" cy="25" r="25"></circle>
                <g id="Group-9" transform="translate(13.000000, 12.000000)" fill="#B8B8B8">
                    <path d="M13.62726,16.0012647 L10.3727371,16.0012647 C9.06280239,16.0025275 8.00123788,16.9846804 8,18.1965584 L8,23.999998 L16,23.999998 L16,18.1952957 C16.0009811,17.6128049 15.7512777,17.0539532 15.3060205,16.6420457 C14.860922,16.2301088 14.2568666,15.9992092 13.62726,15.999998 L13.62726,16.0012647 Z M13.6831358,17 C14.4085552,17.003929 14.9956338,17.5322147 15,18.1851053 L15,23 L9,23 L9,18.1851053 C9.00436624,17.5322147 9.5914448,17.003929 10.3170283,17 L13.6831358,17 Z" id="Fill-1"></path>
                    <path d="M11.9999541,0.226578566 L12.090346,0.143140615 C12.2996056,-0.0477135382 12.636164,-0.0477135382 12.8454237,0.143140615 C12.9451993,0.236009364 13.0008865,0.361707512 12.9999893,0.492611042 C12.9991242,0.623396269 12.9418029,0.748532472 12.8408098,0.840247756 L12.8404253,0.83977454 L12.7523669,0.921090076 L23.8436897,11.158889 C24.0521034,11.3513769 24.0521034,11.6633014 23.8436897,11.8557006 C23.6353079,12.0480998 23.297292,12.0480998 23.0888782,11.8557006 L11.9979329,1.61775578 L0.899265892,11.866578 C0.689013002,12.0486481 0.360208499,12.0437976 0.156331764,11.8555758 C-0.0474168066,11.6675017 -0.0527035678,11.3639925 0.144572726,11.1699145 L11.2453915,0.923092027 L11.148958,0.834075267 C10.9475575,0.640641325 10.950792,0.33412702 11.1561955,0.144388515 C11.361599,-0.0453499891 11.6936264,-0.0484541559 11.9031611,0.13723415 L11.9999541,0.226578566 Z" id="Fill-4"></path>
                    <path d="M20.9272891,9 L20.9272891,21.8951256 C20.9253692,22.4917578 20.4188809,22.9749188 19.7935122,22.9767799 L4.20503237,22.9767799 C3.57960174,22.9749188 3.07317541,22.4917578 3.07122452,21.8951256 L3.07122452,9.00431315 L2,9.91985229 L2,21.8951256 C2.00164123,23.056514 2.98764591,23.9976957 4.20503237,24 L19.7935122,24 C21.0113632,23.9984047 21.9982968,23.0569572 22,21.8951256 L22,9.92410635 L20.9286206,9 L20.9272891,9 Z" id="Fill-7"></path>
                </g>
            </g>
        </g>
        <g id="编组" transform="translate(0.000000, 37.000000)">
            <rect id="矩形" x="0" y="0" width="38" height="38"></rect>
            <path d="M11,13 L13,21 C12.8983281,21.51429 13.4914938,22 14,22 L24,22 C24.8731464,22 25.434906,21.5823912 26,21 L28,14 C28.0598204,13.3961877 27.9204175,13.1121019 28,13 C27.6145577,13.0085219 27.5628982,13 28,13 L11,13 Z M11,13 L10.4459076,12 L28,12 C28.9671957,12 29.1798381,13.2274113 29,14 L27,21 C26.2476157,22.3074469 25.3093826,23 24,23 L14,23 C13.0238641,23 12.0331775,22.1945093 12,21 L9,10 L7,10 L7,9 L9,9 C9.5899245,9 9.79928516,9.40836621 10,10 L11,13 Z" id="路径-6" fill="#333333" fill-rule="nonzero"></path>
            <path d="M14,29 C12.8954305,29 12,28.1045695 12,27 C12,25.8954305 12.8954305,25 14,25 C15.1045695,25 16,25.8954305 16,27 C16,28.1045695 15.1045695,29 14,29 Z M14,28 C14.5522847,28 15,27.5522847 15,27 C15,26.4477153 14.5522847,26 14,26 C13.4477153,26 13,26.4477153 13,27 C13,27.5522847 13.4477153,28 14,28 Z" id="椭圆形" fill="#333333" fill-rule="nonzero"></path>
            <path d="M24,29 C22.8954305,29 22,28.1045695 22,27 C22,25.8954305 22.8954305,25 24,25 C25.1045695,25 26,25.8954305 26,27 C26,28.1045695 25.1045695,29 24,29 Z M24,28 C24.5522847,28 25,27.5522847 25,27 C25,26.4477153 24.5522847,26 24,26 C23.4477153,26 23,26.4477153 23,27 C23,27.5522847 23.4477153,28 24,28 Z" id="椭圆形-copy-2" fill="#333333" fill-rule="nonzero"></path>
        </g>
        <g id="编组复制" transform="translate(0.000000, 75.000000)">
            <rect id="矩形" x="0" y="0" width="38" height="38"></rect>
            <g id="购物车" transform="translate(6.500000, 8.500000)" fill="#979797" fill-rule="nonzero">
                <path d="M4.5,4.5 L6.5,12.5 C6.39832809,13.01429 6.99149381,13.5 7.5,13.5 L17.5,13.5 C18.3731464,13.5 18.934906,13.0823912 19.5,12.5 L21.5,5.5 C21.5598204,4.89618766 21.4204175,4.61210187 21.5,4.5 C21.1145577,4.50852191 21.0628982,4.5 21.5,4.5 L4.5,4.5 Z M4.5,4.5 L4.17424372,3.5 L21.5,3.5 C22.2607508,3.87939244 22.6798381,4.7274113 22.5,5.5 L20.5,12.5 C19.7476157,13.8074469 18.8093826,14.5 17.5,14.5 L7.5,14.5 C6.52386412,14.5 5.53317746,13.6945093 5.5,12.5 L2.5,1.5 L0.5,1.5 L0.5,0.5 L2.5,0.5 C3.0899245,0.5 3.23402864,0.741792727 3.5,1.5 L4.5,4.5 Z" id="路径-6"></path>
                <path d="M7.5,20.5 C6.3954305,20.5 5.5,19.6045695 5.5,18.5 C5.5,17.3954305 6.3954305,16.5 7.5,16.5 C8.6045695,16.5 9.5,17.3954305 9.5,18.5 C9.5,19.6045695 8.6045695,20.5 7.5,20.5 Z M7.5,19.5 C8.05228475,19.5 8.5,19.0522847 8.5,18.5 C8.5,17.9477153 8.05228475,17.5 7.5,17.5 C6.94771525,17.5 6.5,17.9477153 6.5,18.5 C6.5,19.0522847 6.94771525,19.5 7.5,19.5 Z" id="椭圆形"></path>
                <path d="M17.5,20.5 C16.3954305,20.5 15.5,19.6045695 15.5,18.5 C15.5,17.3954305 16.3954305,16.5 17.5,16.5 C18.6045695,16.5 19.5,17.3954305 19.5,18.5 C19.5,19.6045695 18.6045695,20.5 17.5,20.5 Z M17.5,19.5 C18.0522847,19.5 18.5,19.0522847 18.5,18.5 C18.5,17.9477153 18.0522847,17.5 17.5,17.5 C16.9477153,17.5 16.5,17.9477153 16.5,18.5 C16.5,19.0522847 16.9477153,19.5 17.5,19.5 Z" id="椭圆形-copy-2"></path>
            </g>
        </g>
        <g id="编组" transform="translate(38.000000, 37.000000)">
            <rect id="矩形" x="0" y="0" width="38" height="38"></rect>
            <g id="客服" transform="translate(7.662648, 10.000000)" stroke="#333333">
                <path d="M3.33735152,14 L3.33735152,7.75311205 C3.33735152,3.4711865 6.69521589,9.76996262e-14 10.8373515,9.76996262e-14 C14.9794871,9.76996262e-14 18.3373515,3.4711865 18.3373515,7.75311205 L18.3373515,13.5917205 C17.4067613,15.7459268 16.1479506,16.8808889 14.5609195,16.9966068" id="路径" stroke-linecap="round" stroke-linejoin="round"></path>
                <path d="M18.3373515,14 C19.9942058,14 21.3373515,12.4329966 21.3373515,10.5 C21.3373515,8.56700338 19.9942058,7 18.3373515,7" id="路径"></path>
                <path d="M0.33735152,14 C1.99420576,14 3.33735152,12.4329966 3.33735152,10.5 C3.33735152,8.56700338 1.99420576,7 0.33735152,7" id="路径-copy" transform="translate(1.837352, 10.500000) scale(-1, 1) translate(-1.837352, -10.500000) "></path>
                <circle id="椭圆形" cx="12.9430396" cy="17.0835614" r="1.61787995"></circle>
            </g>
        </g>
        <g id="编组复制-2" transform="translate(38.000000, 75.000000)">
            <rect id="矩形" x="0" y="0" width="38" height="38"></rect>
            <g id="客服" transform="translate(7.662648, 10.000000)" stroke="#979797">
                <path d="M3.33735152,14 L3.33735152,7.75311205 C3.33735152,3.4711865 6.69521589,9.76996262e-14 10.8373515,9.76996262e-14 C14.9794871,9.76996262e-14 18.3373515,3.4711865 18.3373515,7.75311205 L18.3373515,13.5917205 C17.2936808,15.748189 15.97833,16.8842821 14.3912989,17" id="路径" stroke-linecap="round" stroke-linejoin="round"></path>
                <path d="M18.3373515,14 C19.9942058,14 21.3373515,12.4329966 21.3373515,10.5 C21.3373515,8.56700338 19.9942058,7 18.3373515,7" id="路径"></path>
                <path d="M0.33735152,14 C1.99420576,14 3.33735152,12.4329966 3.33735152,10.5 C3.33735152,8.56700338 1.99420576,7 0.33735152,7" id="路径-copy" transform="translate(1.837352, 10.500000) scale(-1, 1) translate(-1.837352, -10.500000) "></path>
                <circle id="椭圆形" cx="12.6178799" cy="17.0835614" r="1.61787995"></circle>
            </g>
        </g>
        <g id="编组" transform="translate(76.000000, 37.000000)">
            <rect id="矩形" x="0" y="0" width="38" height="38"></rect>
            <g id="意见反馈" transform="translate(10.000000, 10.000000)">
                <path d="M18,5.22635138 C18,4.950209 18.2238576,4.72635138 18.5,4.72635138 C18.7761424,4.72635138 19,4.950209 19,5.22635138 L19,16.4603421 C19,17.8629564 17.8629564,19 16.4603421,19 L2.53965791,19 C1.13704358,19 0,17.8629564 0,16.4603421 L0,2.53965791 C0,1.13704358 1.13704358,0 2.53965791,0 L13.3018052,0 C13.5779476,0 13.8018052,0.223857625 13.8018052,0.5 C13.8018052,0.776142375 13.5779476,1 13.3018052,1 L2.53965791,1 C1.68932833,1 1,1.68932833 1,2.53965791 L1,16.4603421 C1,17.3106717 1.68932833,18 2.53965791,18 L16.4603421,18 C17.3106717,18 18,17.3106717 18,16.4603421 L18,5.22635138 Z" id="路径" fill="#333333" fill-rule="nonzero"></path>
                <path d="M7,11 L18,1" id="路径-4" stroke="#333333" stroke-linecap="round" stroke-linejoin="round"></path>
            </g>
        </g>
        <g id="编组复制-3" transform="translate(76.000000, 75.000000)">
            <rect id="矩形" x="0" y="0" width="38" height="38"></rect>
            <g id="意见反馈" transform="translate(10.000000, 10.000000)">
                <path d="M18,5.22635138 C18,4.950209 18.2238576,4.72635138 18.5,4.72635138 C18.7761424,4.72635138 19,4.950209 19,5.22635138 L19,16.4603421 C19,17.8629564 17.8629564,19 16.4603421,19 L2.53965791,19 C1.13704358,19 0,17.8629564 0,16.4603421 L0,2.53965791 C0,1.13704358 1.13704358,0 2.53965791,0 L13.3018052,0 C13.5779476,0 13.8018052,0.223857625 13.8018052,0.5 C13.8018052,0.776142375 13.5779476,1 13.3018052,1 L2.53965791,1 C1.68932833,1 1,1.68932833 1,2.53965791 L1,16.4603421 C1,17.3106717 1.68932833,18 2.53965791,18 L16.4603421,18 C17.3106717,18 18,17.3106717 18,16.4603421 L18,5.22635138 Z" id="路径" fill="#979797" fill-rule="nonzero"></path>
                <path d="M7,11 L18,1" id="路径-4" stroke="#979797" stroke-linecap="round" stroke-linejoin="round"></path>
            </g>
        </g>
        <g id="编组-2" transform="translate(114.000000, 37.000000)">
            <rect id="矩形" x="0" y="0" width="38" height="38"></rect>
            <g id="编组" transform="translate(10.592021, 10.000000)">
                <path d="M0.907979246,1 C0.631836871,1 0.407979246,0.776142375 0.407979246,0.5 C0.407979246,0.223857625 0.631836871,0 0.907979246,0 L15.9079792,0 C16.1841216,0 16.4079792,0.223857625 16.4079792,0.5 C16.4079792,0.776142375 16.1841216,1 15.9079792,1 L0.907979246,1 Z" id="路径" fill="#333333" fill-rule="nonzero"></path>
                <path d="M7.52817514,9.67409759 C6.94606836,9.67409759 6.77817514,9.45023997 6.77817514,9.67409759 C6.77817514,8.89795522 6.94606836,8.67409759 7.52817514,8.67409759 L18.7781751,8.67409759 C18.6102819,8.67409759 18.7781751,8.89795522 18.7781751,9.67409759 L7.52817514,9.67409759 Z" id="路径-copy" fill="#333333" fill-rule="nonzero" transform="translate(12.778175, 9.174098) rotate(45.000000) translate(-12.778175, -9.174098) "></path>
                <path d="M-0.249999999,9.67409786 C-0.83210678,9.67409786 -1,9.45024024 -1,9.67409786 C-1,8.89795549 -0.83210678,8.67409786 -0.249999999,8.67409786 L11,8.67409786 C10.8321068,8.67409786 11,8.89795549 11,9.67409786 L-0.249999999,9.67409786 Z" id="路径-copy-2" fill="#333333" fill-rule="nonzero" transform="translate(5.000000, 9.174098) scale(-1, 1) rotate(45.000000) translate(-5.000000, -9.174098) "></path>
                <path d="M8.90797925,5.5 L8.93702089,19.5" id="路径-5" stroke="#333333" stroke-linecap="round"></path>
            </g>
        </g>
        <g id="编组-2复制-2" transform="translate(114.000000, 75.000000)">
            <rect id="矩形" x="0" y="0" width="38" height="38"></rect>
            <g id="编组" transform="translate(10.592021, 10.000000)">
                <path d="M0.907979246,1 C0.631836871,1 0.407979246,0.776142375 0.407979246,0.5 C0.407979246,0.223857625 0.631836871,0 0.907979246,0 L15.9079792,0 C16.1841216,0 16.4079792,0.223857625 16.4079792,0.5 C16.4079792,0.776142375 16.1841216,1 15.9079792,1 L0.907979246,1 Z" id="路径" fill="#979797" fill-rule="nonzero"></path>
                <path d="M7.52817514,9.67409759 C6.94606836,9.67409759 6.77817514,9.45023997 6.77817514,9.67409759 C6.77817514,8.89795522 6.94606836,8.67409759 7.52817514,8.67409759 L18.7781751,8.67409759 C18.6102819,8.67409759 18.7781751,8.89795522 18.7781751,9.67409759 L7.52817514,9.67409759 Z" id="路径-copy" fill="#979797" fill-rule="nonzero" transform="translate(12.778175, 9.174098) rotate(45.000000) translate(-12.778175, -9.174098) "></path>
                <path d="M-0.249999999,9.67409786 C-0.83210678,9.67409786 -1,9.45024024 -1,9.67409786 C-1,8.89795549 -0.83210678,8.67409786 -0.249999999,8.67409786 L11,8.67409786 C10.8321068,8.67409786 11,8.89795549 11,9.67409786 L-0.249999999,9.67409786 Z" id="路径-copy-2" fill="#979797" fill-rule="nonzero" transform="translate(5.000000, 9.174098) scale(-1, 1) rotate(45.000000) translate(-5.000000, -9.174098) "></path>
                <path d="M8.90797925,5.5 L8.93702089,19.5" id="路径-5" stroke="#979797" stroke-linecap="round"></path>
            </g>
        </g>
        <g id="编组" transform="translate(139.000000, 0.000000)">
            <rect id="矩形" x="0" y="0" width="20" height="20"></rect>
            <path d="M13.2823996,6.80334813 C11.3924709,4.16520466 7.53111556,4.16520466 5.6525347,6.80334813 C4.43315931,8.39756999 4.43315931,10.7543802 5.6525347,12.3609683 C7.543495,14.9980813 11.4048504,14.9980813 13.2823996,12.3609683 C14.5141545,10.6606024 14.5141545,8.39756999 13.2823996,6.80334813 M17.7183676,17.7186667 C17.3428578,18.0937778 16.779593,18.0937778 16.4030515,17.7186667 L13.4815024,14.79919 C10.9354631,16.6860809 7.44961754,16.5933337 5.09030155,14.424079 C2.44935316,11.973491 2.26159824,7.64734794 4.80866916,5.02157077 C7.35574008,2.39579359 11.5915737,2.28964954 14.2325221,4.92779301 C16.5918381,7.28460321 16.779593,10.9532715 14.7957868,13.4863014 L17.7183676,16.4047476 C18.0938775,16.7808892 18.0938775,17.3435557 17.7183676,17.7186667" id="Search-icon-Copy-5" fill="#333333" fill-rule="nonzero"></path>
        </g>
        <g id="编组" transform="translate(159.000000, 0.000000)">
            <rect id="矩形" x="0" y="0" width="20" height="20"></rect>
            <path d="M13.2823996,6.80334813 C11.3924709,4.16520466 7.53111556,4.16520466 5.6525347,6.80334813 C4.43315931,8.39756999 4.43315931,10.7543802 5.6525347,12.3609683 C7.543495,14.9980813 11.4048504,14.9980813 13.2823996,12.3609683 C14.5141545,10.6606024 14.5141545,8.39756999 13.2823996,6.80334813 M17.7183676,17.7186667 C17.3428578,18.0937778 16.779593,18.0937778 16.4030515,17.7186667 L13.4815024,14.79919 C10.9354631,16.6860809 7.44961754,16.5933337 5.09030155,14.424079 C2.44935316,11.973491 2.26159824,7.64734794 4.80866916,5.02157077 C7.35574008,2.39579359 11.5915737,2.28964954 14.2325221,4.92779301 C16.5918381,7.28460321 16.779593,10.9532715 14.7957868,13.4863014 L17.7183676,16.4047476 C18.0938775,16.7808892 18.0938775,17.3435557 17.7183676,17.7186667" id="Search-icon-Copy-5" fill="#777777" fill-rule="nonzero"></path>
        </g>
        <g id="编组" transform="translate(152.000000, 75.000000)">
            <g id="换新" transform="translate(7.000000, 7.000000)" fill="#979797" fill-rule="nonzero">
                <path d="M8.91156349,15.2044567 L10.1819805,16.4748737 C10.3772427,16.6701359 10.3772427,16.9867184 10.1819805,17.1819805 C9.98671837,17.3772427 9.67013588,17.3772427 9.47487373,17.1819805 L7.35355339,15.0606602 C7.15829124,14.865398 7.15829124,14.5488155 7.35355339,14.3535534 C7.37818715,14.3289196 7.40475181,14.3073936 7.43276017,14.2889753 C7.51230504,14.2355968 7.60802471,14.2044567 7.71101753,14.2044567 L16.7110175,14.2044567 C16.9871599,14.2044567 17.2110175,14.4283143 17.2110175,14.7044567 C17.2110175,14.9805991 16.9871599,15.2044567 16.7110175,15.2044567 L8.91156349,15.2044567 Z M15.299454,9 L14.029037,7.72958297 C13.8337749,7.53432082 13.8337749,7.21773834 14.029037,7.02247619 C14.2242992,6.82721404 14.5408817,6.82721404 14.7361438,7.02247619 L16.8574641,9.14379653 C17.0527263,9.33905868 17.0527263,9.65564117 16.8574641,9.85090331 C16.8328304,9.87553708 16.8062657,9.89706311 16.7782574,9.91548141 C16.6987125,9.96885992 16.6029928,10 16.5,10 L7.5,10 C7.22385763,10 7,9.77614237 7,9.5 C7,9.22385763 7.22385763,9 7.5,9 L15.299454,9 Z M12,23.5 C5.64872538,23.5 0.5,18.3512746 0.5,12 C0.5,5.64872538 5.64872538,0.5 12,0.5 C18.3512746,0.5 23.5,5.64872538 23.5,12 C23.5,18.3512746 18.3512746,23.5 12,23.5 Z M12,22.5 C17.7989899,22.5 22.5,17.7989899 22.5,12 C22.5,6.20101013 17.7989899,1.5 12,1.5 C6.20101013,1.5 1.5,6.20101013 1.5,12 C1.5,17.7989899 6.20101013,22.5 12,22.5 Z" id="形状结合"></path>
            </g>
            <rect id="矩形" x="0" y="0" width="38" height="38"></rect>
        </g>
        <g id="编组" transform="translate(152.000000, 37.000000)">
            <g id="换新" transform="translate(7.000000, 7.000000)" fill="#333333" fill-rule="nonzero">
                <path d="M8.91156349,15.2044567 L10.1819805,16.4748737 C10.3772427,16.6701359 10.3772427,16.9867184 10.1819805,17.1819805 C9.98671837,17.3772427 9.67013588,17.3772427 9.47487373,17.1819805 L7.35355339,15.0606602 C7.15829124,14.865398 7.15829124,14.5488155 7.35355339,14.3535534 C7.37818715,14.3289196 7.40475181,14.3073936 7.43276017,14.2889753 C7.51230504,14.2355968 7.60802471,14.2044567 7.71101753,14.2044567 L16.7110175,14.2044567 C16.9871599,14.2044567 17.2110175,14.4283143 17.2110175,14.7044567 C17.2110175,14.9805991 16.9871599,15.2044567 16.7110175,15.2044567 L8.91156349,15.2044567 Z M15.299454,9 L14.029037,7.72958297 C13.8337749,7.53432082 13.8337749,7.21773834 14.029037,7.02247619 C14.2242992,6.82721404 14.5408817,6.82721404 14.7361438,7.02247619 L16.8574641,9.14379653 C17.0527263,9.33905868 17.0527263,9.65564117 16.8574641,9.85090331 C16.8328304,9.87553708 16.8062657,9.89706311 16.7782574,9.91548141 C16.6987125,9.96885992 16.6029928,10 16.5,10 L7.5,10 C7.22385763,10 7,9.77614237 7,9.5 C7,9.22385763 7.22385763,9 7.5,9 L15.299454,9 Z M12,23.5 C5.64872538,23.5 0.5,18.3512746 0.5,12 C0.5,5.64872538 5.64872538,0.5 12,0.5 C18.3512746,0.5 23.5,5.64872538 23.5,12 C23.5,18.3512746 18.3512746,23.5 12,23.5 Z M12,22.5 C17.7989899,22.5 22.5,17.7989899 22.5,12 C22.5,6.20101013 17.7989899,1.5 12,1.5 C6.20101013,1.5 1.5,6.20101013 1.5,12 C1.5,17.7989899 6.20101013,22.5 12,22.5 Z" id="形状结合"></path>
            </g>
            <rect id="矩形" x="0" y="0" width="38" height="38"></rect>
        </g>
        <g id="编组" transform="translate(0.000000, 151.000000)">
            <g id="二维码" transform="translate(10.000000, 10.000000)" fill="#979797" fill-rule="nonzero">
                <path d="M2,0.5 L7,0.5 C7.82842712,0.5 8.5,1.17157288 8.5,2 L8.5,7 C8.5,7.82842712 7.82842712,8.5 7,8.5 L2,8.5 C1.17157288,8.5 0.5,7.82842712 0.5,7 L0.5,2 C0.5,1.17157288 1.17157288,0.5 2,0.5 Z M2,1.5 C1.72385763,1.5 1.5,1.72385763 1.5,2 L1.5,7 C1.5,7.27614237 1.72385763,7.5 2,7.5 L7,7.5 C7.27614237,7.5 7.5,7.27614237 7.5,7 L7.5,2 C7.5,1.72385763 7.27614237,1.5 7,1.5 L2,1.5 Z M12,0.5 L17,0.5 C17.8284271,0.5 18.5,1.17157288 18.5,2 L18.5,7 C18.5,7.82842712 17.8284271,8.5 17,8.5 L12,8.5 C11.1715729,8.5 10.5,7.82842712 10.5,7 L10.5,2 C10.5,1.17157288 11.1715729,0.5 12,0.5 Z M12,1.5 C11.7238576,1.5 11.5,1.72385763 11.5,2 L11.5,7 C11.5,7.27614237 11.7238576,7.5 12,7.5 L17,7.5 C17.2761424,7.5 17.5,7.27614237 17.5,7 L17.5,2 C17.5,1.72385763 17.2761424,1.5 17,1.5 L12,1.5 Z M2,10.5 L7,10.5 C7.82842712,10.5 8.5,11.1715729 8.5,12 L8.5,17 C8.5,17.8284271 7.82842712,18.5 7,18.5 L2,18.5 C1.17157288,18.5 0.5,17.8284271 0.5,17 L0.5,12 C0.5,11.1715729 1.17157288,10.5 2,10.5 Z M2,11.5 C1.72385763,11.5 1.5,11.7238576 1.5,12 L1.5,17 C1.5,17.2761424 1.72385763,17.5 2,17.5 L7,17.5 C7.27614237,17.5 7.5,17.2761424 7.5,17 L7.5,12 C7.5,11.7238576 7.27614237,11.5 7,11.5 L2,11.5 Z M11.5,12 C11.7761424,12 12,12.2238576 12,12.5 L12,17.5 C12,17.7761424 11.7761424,18 11.5,18 C11.2238576,18 11,17.7761424 11,17.5 L11,12.5 C11,12.2238576 11.2238576,12 11.5,12 Z M14.5,13 C14.7761424,13 15,13.2238576 15,13.5 L15,17.5 C15,17.7761424 14.7761424,18 14.5,18 C14.2238576,18 14,17.7761424 14,17.5 L14,13.5 C14,13.2238576 14.2238576,13 14.5,13 Z M17.5,11 C17.7761424,11 18,11.2238576 18,11.5 L18,17.5 C18,17.7761424 17.7761424,18 17.5,18 C17.2238576,18 17,17.7761424 17,17.5 L17,11.5 C17,11.2238576 17.2238576,11 17.5,11 Z" id="形状结合"></path>
            </g>
            <rect id="矩形" x="0" y="0" width="38" height="38"></rect>
        </g>
        <g id="编组" transform="translate(0.000000, 113.000000)">
            <g id="二维码" transform="translate(10.000000, 10.000000)" fill="#333333" fill-rule="nonzero">
                <path d="M2,0.5 L7,0.5 C7.82842712,0.5 8.5,1.17157288 8.5,2 L8.5,7 C8.5,7.82842712 7.82842712,8.5 7,8.5 L2,8.5 C1.17157288,8.5 0.5,7.82842712 0.5,7 L0.5,2 C0.5,1.17157288 1.17157288,0.5 2,0.5 Z M2,1.5 C1.72385763,1.5 1.5,1.72385763 1.5,2 L1.5,7 C1.5,7.27614237 1.72385763,7.5 2,7.5 L7,7.5 C7.27614237,7.5 7.5,7.27614237 7.5,7 L7.5,2 C7.5,1.72385763 7.27614237,1.5 7,1.5 L2,1.5 Z M12,0.5 L17,0.5 C17.8284271,0.5 18.5,1.17157288 18.5,2 L18.5,7 C18.5,7.82842712 17.8284271,8.5 17,8.5 L12,8.5 C11.1715729,8.5 10.5,7.82842712 10.5,7 L10.5,2 C10.5,1.17157288 11.1715729,0.5 12,0.5 Z M12,1.5 C11.7238576,1.5 11.5,1.72385763 11.5,2 L11.5,7 C11.5,7.27614237 11.7238576,7.5 12,7.5 L17,7.5 C17.2761424,7.5 17.5,7.27614237 17.5,7 L17.5,2 C17.5,1.72385763 17.2761424,1.5 17,1.5 L12,1.5 Z M2,10.5 L7,10.5 C7.82842712,10.5 8.5,11.1715729 8.5,12 L8.5,17 C8.5,17.8284271 7.82842712,18.5 7,18.5 L2,18.5 C1.17157288,18.5 0.5,17.8284271 0.5,17 L0.5,12 C0.5,11.1715729 1.17157288,10.5 2,10.5 Z M2,11.5 C1.72385763,11.5 1.5,11.7238576 1.5,12 L1.5,17 C1.5,17.2761424 1.72385763,17.5 2,17.5 L7,17.5 C7.27614237,17.5 7.5,17.2761424 7.5,17 L7.5,12 C7.5,11.7238576 7.27614237,11.5 7,11.5 L2,11.5 Z M11.5,12 C11.7761424,12 12,12.2238576 12,12.5 L12,17.5 C12,17.7761424 11.7761424,18 11.5,18 C11.2238576,18 11,17.7761424 11,17.5 L11,12.5 C11,12.2238576 11.2238576,12 11.5,12 Z M14.5,13 C14.7761424,13 15,13.2238576 15,13.5 L15,17.5 C15,17.7761424 14.7761424,18 14.5,18 C14.2238576,18 14,17.7761424 14,17.5 L14,13.5 C14,13.2238576 14.2238576,13 14.5,13 Z M17.5,11 C17.7761424,11 18,11.2238576 18,11.5 L18,17.5 C18,17.7761424 17.7761424,18 17.5,18 C17.2238576,18 17,17.7761424 17,17.5 L17,11.5 C17,11.2238576 17.2238576,11 17.5,11 Z" id="形状结合"></path>
            </g>
            <rect id="矩形" x="0" y="0" width="38" height="38"></rect>
        </g>
        <rect id="矩形备份" opacity="0.400000006" x="38" y="113" width="30" height="30"></rect>
        <g id="编组-2" transform="translate(41.000000, 114.000000)" fill-rule="nonzero">
            <path d="M0.035569175,21.15625 C0.035569175,21.0208327 0.0817926711,20.9069015 0.17424105,20.8144531 C0.266689429,20.7220047 0.380620581,20.6757812 0.516037925,20.6757812 C0.654059448,20.6757812 0.770594741,20.7213537 0.8656473,20.8125 C0.960699859,20.9036463 1.00822543,21.0182285 1.00822543,21.15625 C1.00822543,21.2916673 0.960699859,21.4042964 0.8656473,21.4941406 C0.770594741,21.5839848 0.654059448,21.6289062 0.516037925,21.6289062 C0.378016402,21.6289062 0.263434214,21.5839848 0.172287925,21.4941406 C0.0811416359,21.4042964 0.035569175,21.2916673 0.035569175,21.15625 Z M0.125412925,27 L0.125412925,22.6796875 L0.891037925,22.6796875 L0.891037925,27 L0.125412925,27 Z M3.07123883,24.7382812 L3.07123883,27 L2.28998883,27 L2.28998883,20.9492188 L4.00873883,20.9492188 C4.66238793,20.9492188 5.16954431,21.1067693 5.5302232,21.421875 C5.89090209,21.7369807 6.07123883,22.1874971 6.07123883,22.7734375 C6.07123883,23.3671905 5.86030343,23.8483054 5.43842633,24.2167969 C5.01654922,24.5852883 4.48921074,24.7591147 3.85639508,24.7382812 L3.07123883,24.7382812 Z M3.07123883,21.6367188 L3.07123883,24.0507812 L3.79389508,24.0507812 C4.27045996,24.0507812 4.6324355,23.9433604 4.87983258,23.7285156 C5.12722965,23.5136708 5.25092633,23.2057312 5.25092633,22.8046875 C5.25092633,22.0260378 4.78999343,21.6367188 3.86811383,21.6367188 L3.07123883,21.6367188 Z M10.6694085,27 L9.90768973,27 L9.90768973,24.515625 C9.90768973,23.645829 9.58477629,23.2109375 8.93893973,23.2109375 C8.6082089,23.2109375 8.33347207,23.3378894 8.11472098,23.5917969 C7.89596988,23.8457044 7.78659598,24.1653627 7.78659598,24.5507812 L7.78659598,27 L7.02097098,27 L7.02097098,20.6054688 L7.78659598,20.6054688 L7.78659598,23.390625 L7.80222098,23.390625 C8.1329518,22.8489556 8.60299918,22.578125 9.21237723,22.578125 C10.1837362,22.578125 10.6694085,23.1653587 10.6694085,24.3398438 L10.6694085,27 Z M11.5917969,24.8867188 C11.5917969,24.1731735 11.7910136,23.6100281 12.1894531,23.1972656 C12.5878926,22.7845031 13.1282518,22.578125 13.8105469,22.578125 C14.4589876,22.578125 14.9674461,22.7766907 15.3359375,23.1738281 C15.7044289,23.5709655 15.8886719,24.1197882 15.8886719,24.8203125 C15.8886719,25.5026076 15.6920593,26.0533833 15.2988281,26.4726562 C14.905597,26.8919292 14.3782585,27.1015625 13.7167969,27.1015625 C13.0709603,27.1015625 12.5553405,26.8984395 12.1699219,26.4921875 C11.7845033,26.0859355 11.5917969,25.5507846 11.5917969,24.8867188 Z M12.3730469,24.8632812 C12.3730469,25.3606796 12.4986967,25.7526027 12.75,26.0390625 C13.0013033,26.3255223 13.3391906,26.46875 13.7636719,26.46875 C14.2011741,26.46875 14.5345041,26.3287774 14.7636719,26.0488281 C14.9928397,25.7688788 15.1074219,25.3671901 15.1074219,24.84375 C15.1074219,24.3177057 14.9928397,23.9140639 14.7636719,23.6328125 C14.5345041,23.3515611 14.2011741,23.2109375 13.7636719,23.2109375 C13.3339822,23.2109375 12.9947929,23.3580714 12.7460938,23.6523438 C12.4973946,23.9466161 12.3730469,24.3502579 12.3730469,24.8632812 Z M20.5532478,27 L19.791529,27 L19.791529,24.5429688 C19.791529,23.6549435 19.4673135,23.2109375 18.8188728,23.2109375 C18.4829336,23.2109375 18.2068947,23.3359362 17.9907478,23.5859375 C17.7746009,23.8359388 17.666529,24.1523418 17.666529,24.5351562 L17.666529,27 L16.900904,27 L16.900904,22.6796875 L17.666529,22.6796875 L17.666529,23.3945312 L17.682154,23.3945312 C18.0076765,22.8502577 18.480328,22.578125 19.1001228,22.578125 C19.5740835,22.578125 19.934757,22.7298162 20.182154,23.0332031 C20.4295511,23.3365901 20.5532478,23.7786429 20.5532478,24.359375 L20.5532478,27 Z M25.2842299,25.0351562 L22.2607924,25.0351562 C22.2738133,25.4960961 22.4001141,25.8522123 22.6396987,26.1035156 C22.8792832,26.354819 23.2139153,26.4804688 23.6436049,26.4804688 C24.1279823,26.4804688 24.5719883,26.3255224 24.9756362,26.015625 L24.9756362,26.6992188 C24.5954259,26.9674493 24.0915247,27.1015625 23.4639174,27.1015625 C22.8389143,27.1015625 22.351289,26.9036478 22.0010268,26.5078125 C21.6507646,26.1119772 21.4756362,25.5625035 21.4756362,24.859375 C21.4756362,24.1979134 21.6676915,23.6523459 22.0518081,23.2226562 C22.4359246,22.7929666 22.9131333,22.578125 23.4834487,22.578125 C24.0485557,22.578125 24.4899575,22.7597638 24.8076674,23.1230469 C25.1253773,23.4863299 25.2842299,23.9947884 25.2842299,24.6484375 L25.2842299,25.0351562 Z M24.5186049,24.421875 C24.5160007,24.031248 24.4235538,23.7291677 24.2412612,23.515625 C24.0589686,23.3020823 23.8024607,23.1953125 23.4717299,23.1953125 C23.1670409,23.1953125 22.9033717,23.3085926 22.6807143,23.5351562 C22.4580569,23.7617199 22.3180844,24.0572898 22.2607924,24.421875 L24.5186049,24.421875 Z" id="iPhone" fill="#777777" opacity="0.8953125"></path>
            <path d="M16.8574238,7.59069169 C16.8795594,9.98165095 18.9755745,10.7773165 19,10.7884115 C18.9809176,10.8430937 18.6641491,11.9224727 17.8939818,13.037514 C17.2283864,14.0011887 16.5391287,14.9593159 15.4514297,14.9791283 C14.3812866,14.9989407 14.038566,14.3514718 12.8157633,14.3514718 C11.5937239,14.3514718 11.2113118,14.9593159 10.1999426,14.9989407 C9.15117176,15.0385654 8.35123593,13.9591864 7.6802974,12.9994742 C6.30788841,11.0356701 5.26064417,7.45121247 6.66816485,5.03172337 C7.3665821,3.82950753 8.61610019,3.06950424 9.97095334,3.04889936 C11.0021683,3.03067195 11.976136,3.73757803 12.6050932,3.73757803 C13.2363402,3.73757803 14.4186881,2.88802274 15.6620998,3.01244455 C16.1819055,3.03384194 17.6436203,3.22007839 18.5817129,4.57841588 C18.5069098,4.62675811 16.837578,5.58726279 16.8574238,7.59069169 Z M13.0182607,2.99495481 C12.9064431,2.24784452 13.3254052,1.47142299 13.8038147,0.983554099 C14.3381329,0.434457337 15.2397507,0.0260544089 15.9842577,0 C16.079798,0.760788867 15.7301911,1.52483454 15.2142733,2.07523402 C14.69694,2.62367943 13.8491079,3.05162316 13.0182607,2.99495481 Z" id="形状" fill="#797979"></path>
        </g>
    </g>
</svg>